<svg width="48" height="32" viewBox="0 0 48 32" fill="none" xmlns="http://www.w3.org/2000/svg">
<path d="M6.42 16.24H10.4V17.66H6.42V21.78H4.98V17.66H1V16.24H4.98V12.1H6.42V16.24Z" fill="#082134"/>
<path d="M32 27C33.1046 27 34 26.1046 34 25C34 23.8954 33.1046 23 32 23C30.8954 23 30 23.8954 30 25C30 26.1046 30.8954 27 32 27Z" fill="#082134"/>
<path d="M26.4707 19.2326L27.8847 20.6456C28.993 19.5905 30.4642 19.0013 31.9944 18.9996C33.5246 18.998 34.9971 19.5839 36.1077 20.6366L37.5207 19.2236C36.0355 17.7952 34.0543 16.9981 31.9937 17C29.933 17.0019 27.9534 17.8015 26.4707 19.2326Z" fill="#082134"/>
<path d="M22.2285 14.9932L23.6425 16.4062C25.8745 14.2243 28.8712 13.0018 31.9925 12.9999C35.1137 12.9981 38.112 14.217 40.3465 16.3962L41.7595 14.9832C39.1505 12.4282 35.6437 10.9981 31.992 11C28.3403 11.0019 24.8349 12.4355 22.2285 14.9932Z" fill="#082134"/>
<path d="M46 10.7413C42.2689 7.06243 37.2397 5 32 5C26.7603 5 21.7311 7.06243 18 10.7413V10.7643L19.404 12.1683C22.7583 8.85884 27.2804 7.00251 31.9924 7.00064C36.7045 6.99877 41.2281 8.85151 44.585 12.1583L46 10.7433V10.7413Z" fill="#082134"/>
</svg>
