<svg width="48" height="48" viewBox="0 0 48 48" fill="none" xmlns="http://www.w3.org/2000/svg">
<path d="M23.6271 36.2313C24.6006 40.4107 26.1446 44.1618 28.2177 47.3812C28.4661 47.7672 28.8943 48.0003 29.3524 48.0003H29.3856C29.8563 47.9885 30.2863 47.7321 30.5211 47.3245L32.7175 43.5149L38.3132 45.4098C38.8755 45.6005 39.4964 45.4008 39.8428 44.9176C40.1892 44.4353 40.1793 43.7829 39.8185 43.3114C37.3657 40.1019 35.6976 36.5956 34.8626 32.8876C34.7789 32.5187 34.545 32.202 34.2166 32.0139C33.8882 31.8258 33.4968 31.7836 33.1359 31.8987L24.5323 34.6394C23.8619 34.8528 23.4678 35.5457 23.6271 36.2313Z" fill="#3399FF"/>
<path d="M23.9084 36.2313C22.9348 40.4107 21.3908 44.1618 19.3177 47.3812C19.0694 47.7672 18.6412 48.0003 18.1831 48.0003H18.1498C17.6792 47.9885 17.2492 47.7321 17.0143 47.3245L14.8179 43.5149L9.22228 45.4098C8.65996 45.6005 8.03906 45.4008 7.69265 44.9176C7.34624 44.4353 7.35618 43.7829 7.71693 43.3114C10.1697 40.1019 11.8379 36.5956 12.6728 32.8876C12.7566 32.5187 12.9905 32.202 13.3189 32.0139C13.6473 31.8258 14.0387 31.7836 14.3995 31.8987L23.0032 34.6394C23.6736 34.8528 24.0677 35.5457 23.9084 36.2313Z" fill="#4DC3FF"/>
<path d="M23.7679 0L30.2822 16.3953L23.7679 36.8438C22.2369 36.8438 20.8016 36.2428 19.7263 35.1516C19.0738 34.4897 18.1382 34.185 17.2223 34.3359C15.7138 34.5853 14.2016 34.2272 12.9641 33.3281C11.7238 32.4272 10.9138 31.095 10.6841 29.5781C10.5444 28.6566 9.96507 27.8578 9.13445 27.4406C7.76851 26.7534 6.75507 25.5731 6.28164 24.1172C5.8082 22.6594 5.93476 21.1059 6.63788 19.7447C7.06538 18.9159 7.06538 17.9278 6.63788 17.1C5.93476 15.7378 5.8082 14.1844 6.28164 12.7266C6.75507 11.2706 7.76851 10.0903 9.13445 9.40313C9.96507 8.98594 10.5444 8.18719 10.6841 7.26562C10.9138 5.74875 11.7238 4.41656 12.9641 3.51562C14.2016 2.61656 15.7138 2.25844 17.2223 2.50781C18.1382 2.65875 19.0738 2.35406 19.7263 1.69219C20.8016 0.600937 22.2369 0 23.7679 0Z" fill="#FF6666"/>
<path d="M40.8976 19.7438C41.6007 21.1059 41.7273 22.6594 41.2538 24.1172C40.7804 25.5731 39.767 26.7534 38.401 27.4406C37.5704 27.8578 36.991 28.6566 36.8513 29.5781C36.6216 31.095 35.8116 32.4272 34.5713 33.3281C33.3338 34.2272 31.8216 34.5853 30.3132 34.3359C29.3973 34.185 28.4616 34.4897 27.8091 35.1516C26.7338 36.2428 25.2985 36.8438 23.7676 36.8438V0C25.2985 0 26.7338 0.600937 27.8091 1.69219C28.352 2.2425 29.0898 2.54531 29.8491 2.54531C30.0038 2.54531 30.1585 2.53312 30.3132 2.50781C31.8216 2.25844 33.3338 2.61656 34.5713 3.51562C35.8116 4.41656 36.6216 5.74875 36.8513 7.26562C36.991 8.18719 37.5704 8.98594 38.401 9.40313C39.767 10.0903 40.7804 11.2706 41.2538 12.7266C41.7273 14.1844 41.6007 15.7378 40.8976 17.0991C40.4701 17.9278 40.4701 18.9159 40.8976 19.7438Z" fill="#E62E6B"/>
<path d="M23.7677 8.27148L28.6355 18.4218L23.7677 28.5721C18.212 28.5721 13.6914 24.0187 13.6914 18.4218C13.6914 12.8249 18.212 8.27148 23.7677 8.27148Z" fill="#FFBB33"/>
<path d="M33.8438 18.4218C33.8438 24.0187 29.3232 28.5721 23.7676 28.5721V8.27148C29.3232 8.27148 33.8438 12.8249 33.8438 18.4218Z" fill="#FF884D"/>
<path d="M23.7684 10.0312L24.8456 8.43234L23.7684 7.21875C17.6025 7.21875 12.5859 12.2447 12.5859 18.4219C12.5859 24.5991 17.6025 29.625 23.7684 29.625L25.0857 28.0467L23.7684 26.8125C19.1531 26.8125 15.3984 23.0484 15.3984 18.4219C15.3984 13.7953 19.1531 10.0312 23.7684 10.0312Z" fill="#FFE14D"/>
<path d="M34.9501 18.4219C34.9501 24.5991 29.9335 29.625 23.7676 29.625V26.8125C28.3829 26.8125 32.1376 23.0484 32.1376 18.4219C32.1376 13.7953 28.3829 10.0312 23.7676 10.0312V7.21875C29.9335 7.21875 34.9501 12.2447 34.9501 18.4219Z" fill="#FFBB33"/>
<path d="M23.768 17.6814L25.3378 18.229L23.768 21.6611C23.5074 21.9086 23.1614 22.0473 22.8014 22.0473C22.4283 22.0473 22.0693 21.8982 21.8058 21.6339L19.3111 19.1345C18.7627 18.5842 18.7636 17.6936 19.313 17.1451C19.8624 16.5967 20.753 16.5976 21.3014 17.147L22.8014 18.6498L23.768 17.6814Z" fill="#E6F7FF"/>
<path d="M28.2245 17.1968L23.7966 21.6339C23.7873 21.6433 23.7779 21.6527 23.7676 21.6611V17.6814L26.2341 15.2102C26.7826 14.6599 27.6732 14.6589 28.2226 15.2083C28.772 15.7568 28.7729 16.6474 28.2245 17.1968Z" fill="#CCEEFF"/>
</svg>
