<svg width="48" height="48" viewBox="0 0 48 48" fill="none" xmlns="http://www.w3.org/2000/svg">
<path d="M24 34.8193L25.5071 36.2812L24 37.6131C18.076 37.6131 12.4331 39.8612 8.11127 43.9084C7.84034 44.1625 7.49534 44.2881 7.15034 44.2881C6.77534 44.2881 6.40127 44.139 6.12377 43.8437C5.59315 43.2765 5.62221 42.3868 6.1894 41.8553C11.0335 37.3187 17.3588 34.8193 24 34.8193Z" fill="#444444"/>
<path d="M41.8772 43.8428C41.3466 44.41 40.4559 44.439 39.8897 43.9084C35.5669 39.8612 29.9241 37.6131 24 37.6131V34.8193C30.6413 34.8193 36.9666 37.3187 41.8116 41.8553C42.3787 42.3859 42.4078 43.2765 41.8772 43.8428Z" fill="#313131"/>
<path d="M24 5.88672L34.667 27.2149L24 35.4395H1.40625V5.88672H24Z" fill="#E6EAFF"/>
<path d="M24 5.88672H46.5938V35.4395H24V5.88672Z" fill="#CCD5FF"/>
<path d="M24 6.52539L25.8835 4.99895L24 3.71289H1.40625C0.63 3.71289 0 4.34195 0 5.11914V36.2066C0 36.9838 0.63 37.6129 1.40625 37.6129H24L25.6388 35.899L24 34.8004H2.8125V6.52539H24Z" fill="#5A5A5A"/>
<path d="M48 5.11914V36.2066C48 36.9838 47.37 37.6129 46.5938 37.6129H24V34.8004H45.1875V6.52539H24V3.71289H46.5938C47.37 3.71289 48 4.34195 48 5.11914Z" fill="#444444"/>
<path d="M23.9993 19.2568L25.1044 20.6631L23.9993 22.0693C22.8724 22.0693 21.813 22.5081 21.0152 23.305C20.4659 23.8543 19.5752 23.8534 19.0268 23.304C18.4774 22.7546 18.4784 21.864 19.0277 21.3156C20.3562 19.9881 22.1224 19.2568 23.9993 19.2568Z" fill="#33BBFF"/>
<path d="M23.9996 13.6318L25.4059 14.8826L23.9996 16.4443C21.3699 16.4443 18.8977 17.4681 17.0396 19.3281C16.4902 19.8765 15.5996 19.8775 15.0512 19.3281C14.5018 18.7787 14.5009 17.889 15.0502 17.3396C17.4399 14.949 20.618 13.6318 23.9996 13.6318Z" fill="#33BBFF"/>
<path d="M24 27.6943C24.7767 27.6943 25.4062 27.0647 25.4062 26.2881C25.4062 25.5114 24.7767 24.8818 24 24.8818C23.2233 24.8818 22.5938 25.5114 22.5938 26.2881C22.5938 27.0647 23.2233 27.6943 24 27.6943Z" fill="#2E8AE6"/>
<path d="M28.9725 23.304C28.6978 23.5787 28.3378 23.7165 27.9778 23.7165C27.6178 23.7165 27.2587 23.5796 26.9841 23.305C26.1862 22.5081 25.1269 22.0693 24 22.0693V19.2568C25.8769 19.2568 27.6431 19.9881 28.9716 21.3156C29.5209 21.864 29.5219 22.7546 28.9725 23.304Z" fill="#2E8AE6"/>
<path d="M32.9484 19.3281C32.6747 19.6028 32.3147 19.7396 31.9547 19.7396C31.5947 19.7396 31.2347 19.6028 30.96 19.3281C29.1019 17.4681 26.6297 16.4443 24 16.4443V13.6318C27.3816 13.6318 30.5597 14.949 32.9494 17.3396C33.4987 17.889 33.4978 18.7787 32.9484 19.3281Z" fill="#2E8AE6"/>
</svg>
