<svg width="48" height="48" viewBox="0 0 48 48" fill="none" xmlns="http://www.w3.org/2000/svg">
<path d="M23.9997 40.3197C14.9757 40.3197 7.67969 33.0237 7.67969 23.9997C7.67969 14.9757 14.9757 7.67969 23.9997 7.67969C33.0237 7.67969 40.3197 14.9757 40.3197 23.9997C40.3197 33.0237 33.0237 40.3197 23.9997 40.3197ZM23.9997 9.59969C16.0317 9.59969 9.59969 16.0317 9.59969 23.9997C9.59969 31.9677 16.0317 38.3997 23.9997 38.3997C31.9677 38.3997 38.3997 31.9677 38.3997 23.9997C38.3997 16.0317 31.9677 9.59969 23.9997 9.59969Z" fill="#ADB5BA"/>
<path d="M19.007 18.8161C19.295 18.0481 19.583 17.4721 20.159 16.9921C20.639 16.5121 21.215 16.1281 21.983 15.8401C22.751 15.5521 23.519 15.4561 24.383 15.4561C25.055 15.4561 25.727 15.5521 26.303 15.7441C26.879 15.9361 27.455 16.2241 27.935 16.6081C28.415 16.9921 28.799 17.4721 28.991 18.0481C29.279 18.6241 29.375 19.2961 29.375 19.9681C29.375 20.9281 29.183 21.6961 28.799 22.3681C28.415 23.0401 27.839 23.6161 27.263 24.2881L26.015 25.5361C25.727 25.8241 25.439 26.1121 25.343 26.4001C25.151 26.6881 25.055 27.0721 25.055 27.4561C24.959 27.8401 24.959 28.1281 24.959 28.8961H23.423C23.423 28.1281 23.423 27.8401 23.519 27.2641C23.615 26.7841 23.807 26.3041 23.999 25.8241C24.191 25.4401 24.479 25.0561 24.863 24.6721C25.247 24.2881 25.727 23.9041 26.207 23.3281C26.687 22.8481 27.071 22.3681 27.359 21.8881C27.791 21.1681 27.839 20.7361 27.839 20.1601C27.839 19.6801 27.743 19.2001 27.551 18.8161C27.359 18.4321 27.071 18.0481 26.783 17.7601C26.495 17.4721 26.111 17.2801 25.631 17.0881C25.151 16.8961 24.767 16.8001 24.287 16.8001C23.615 16.8001 23.039 16.8961 22.559 17.1841C22.079 17.3761 21.599 17.7601 21.311 18.1441C21.023 18.5281 20.735 19.0081 20.543 19.5841C20.351 20.1601 20.159 20.4481 20.159 21.1201H18.623C18.623 20.2561 18.719 19.5841 19.007 18.8161ZM24.959 30.7201V32.6401H23.039V30.7201H24.959Z" fill="#ADB5BA"/>
</svg>
