<svg width="40" height="40" viewBox="0 0 40 40" fill="none" xmlns="http://www.w3.org/2000/svg">
<path d="M28.3871 4.42134C26.9918 4.42134 25.8356 5.56487 25.8356 6.945C25.8356 7.41818 25.9552 7.8125 26.1944 8.20683C24.9984 9.98127 23.5632 13.0175 23.2044 17.434H21.8489V5.7226C22.8057 5.32828 23.4436 4.42134 23.4436 3.35667C23.4436 1.97654 22.2875 0.833008 20.8921 0.833008C19.4968 0.833008 18.3406 1.97654 18.3406 3.35667C18.3406 4.42134 19.0184 5.32828 19.9353 5.7226V17.434H18.5798C18.221 13.0175 16.7858 9.98127 15.5898 8.20683C15.7891 7.8125 15.9486 7.41818 15.9486 6.945C15.9486 5.56487 14.7925 4.42134 13.3971 4.42134C12.0018 4.42134 10.8456 5.56487 10.8456 6.945C10.8456 8.32512 12.0018 9.46865 13.3971 9.46865C13.6363 9.46865 13.8755 9.42922 14.1147 9.35036C15.1114 10.9276 16.3473 13.5696 16.7061 17.3945H15.6695C15.1513 17.3945 14.7127 17.8283 14.7127 18.3409V24.098C14.7127 25.2021 13.8356 26.0696 12.7194 26.0696H9.29079C8.77252 26.0696 8.33398 26.5034 8.33398 27.016C8.33398 27.5286 8.77252 27.9623 9.29079 27.9623H12.7194C14.8722 27.9623 16.6263 26.2273 16.6263 24.098V19.3267H25.1579V24.1374C25.1579 30.9198 19.5765 36.4403 12.7194 36.4403H9.29079C8.77252 36.4403 8.33398 36.874 8.33398 37.3866C8.33398 37.8993 8.77252 38.333 9.29079 38.333H12.7194C20.613 38.333 27.0317 31.9844 27.0317 24.1769V18.3803C27.0317 17.8677 26.5931 17.434 26.0748 17.434H25.0782C25.437 13.609 26.6728 10.9276 27.6695 9.38979C27.9087 9.46865 28.1479 9.50809 28.3871 9.50809C29.7825 9.50809 30.9386 8.36455 30.9386 6.98443C30.9386 5.56487 29.7825 4.42134 28.3871 4.42134Z" fill="#FF6B17"/>
<path d="M14.7936 34.3111C14.8733 34.3111 14.9132 34.3111 14.9929 34.2717C18.581 33.4831 21.571 30.8411 22.7272 27.3711C22.8866 26.8979 22.6076 26.3458 22.1292 26.1881C21.6109 26.0304 21.0926 26.3064 20.9331 26.7796C19.9763 29.6187 17.5444 31.7875 14.5943 32.4184C14.076 32.5367 13.7571 33.0493 13.8767 33.5225C13.9564 34.0351 14.3551 34.3111 14.7936 34.3111Z" fill="#FF6B17"/>
</svg>
