<svg width="41" height="40" viewBox="0 0 41 40" fill="none" xmlns="http://www.w3.org/2000/svg">
<path d="M28.9611 18.1187C26.4274 16.5171 23.4993 15.6679 20.5111 15.6679C17.5228 15.6679 14.5948 16.5171 12.061 18.1187C11.5806 18.4253 11.175 18.8378 10.8746 19.3253C10.5742 19.8128 10.3868 20.3627 10.3263 20.9338C10.2581 21.5253 10.3231 22.1247 10.5165 22.6872C10.7099 23.2496 11.0267 23.7606 11.443 24.1818L11.5994 24.3398C12.2175 24.9505 13.0217 25.332 13.8813 25.4222C14.7409 25.5124 15.6055 25.306 16.3344 24.8366C17.5923 24.0625 19.0366 23.6531 20.5092 23.6531C21.9818 23.6531 23.4261 24.0625 24.684 24.8366C25.3105 25.2282 26.032 25.4366 26.7686 25.4388C27.2641 25.4412 27.7551 25.3435 28.2127 25.1516C28.6704 24.9597 29.0856 24.6773 29.4339 24.321L29.5902 24.1629C30.0066 23.7418 30.3234 23.2308 30.5168 22.6684C30.7101 22.1059 30.7752 21.5065 30.707 20.915C30.6428 20.3461 30.4525 19.7992 30.1502 19.3151C29.848 18.8309 29.4415 18.422 28.9611 18.1187ZM27.9933 22.586L27.8369 22.7441C27.5745 22.9975 27.2342 23.1525 26.8726 23.1833C26.511 23.2141 26.1498 23.1189 25.8491 22.9134C24.24 21.9218 22.3919 21.3971 20.5073 21.3971C18.6228 21.3971 16.7747 21.9218 15.1655 22.9134C14.8654 23.1186 14.5049 23.2137 14.1439 23.1828C13.783 23.152 13.4433 22.9972 13.1815 22.7441L13.0251 22.586C12.8451 22.4047 12.7081 22.1846 12.6243 21.9421C12.5405 21.6997 12.5121 21.4411 12.5412 21.186C12.5603 20.9461 12.6345 20.714 12.758 20.5082C12.8814 20.3024 13.0506 20.1285 13.2522 20.0005C15.4293 18.6262 17.9444 17.8976 20.5111 17.8976C23.0777 17.8976 25.5928 18.6262 27.7699 20.0005C27.967 20.1259 28.1332 20.2952 28.2558 20.4955C28.3784 20.6957 28.4541 20.9216 28.4772 21.1559C28.5081 21.4128 28.4805 21.6735 28.3967 21.9181C28.3128 22.1627 28.1748 22.3847 27.9933 22.5672V22.586ZM37.3554 10.0535C32.5609 6.21346 26.6165 4.13759 20.4999 4.16731C14.3798 4.14178 8.43356 6.22445 3.64068 10.0723C3.21249 10.416 2.86063 10.847 2.60795 11.3371C2.35526 11.8273 2.20741 12.3658 2.17401 12.9175C2.13882 13.4758 2.22005 14.0353 2.41243 14.5598C2.60482 15.0843 2.90406 15.5621 3.29076 15.9622C3.96424 16.6593 4.86855 17.0806 5.83029 17.1452C6.79203 17.2098 7.7435 16.9132 8.50227 16.3122C11.9355 13.6382 16.1475 12.1881 20.4813 12.1881C24.8151 12.1881 29.0271 13.6382 32.4603 16.3122C33.2137 16.9078 34.1566 17.204 35.1111 17.1451C36.0657 17.0862 36.9659 16.6761 37.642 15.9923L37.6793 15.9584C38.0728 15.5596 38.3783 15.0812 38.5759 14.5545C38.7735 14.0278 38.8587 13.4648 38.8258 12.9025C38.7927 12.3497 38.6446 11.8103 38.3912 11.3194C38.1378 10.8284 37.7849 10.3971 37.3554 10.0535ZM36.1009 14.3552L36.0674 14.3891C35.7772 14.6856 35.3894 14.864 34.9776 14.8904C34.5658 14.9168 34.1588 14.7893 33.8339 14.5321C30.0057 11.5495 25.3087 9.93209 20.4757 9.93209C15.6427 9.93209 10.9457 11.5495 7.1175 14.5321C6.7913 14.7878 6.3835 14.9134 5.97168 14.885C5.55985 14.8565 5.17274 14.676 4.88399 14.3778C4.71578 14.2043 4.58546 13.9972 4.50145 13.7696C4.41745 13.542 4.38164 13.2992 4.39634 13.0568C4.40898 12.8208 4.47131 12.5903 4.57916 12.3807C4.68701 12.171 4.8379 11.9871 5.02173 11.8411C9.42253 8.31015 14.8817 6.40001 20.4999 6.42542C26.115 6.39659 31.5726 8.3013 35.9743 11.8261C36.1588 11.9723 36.3101 12.1568 36.418 12.3671C36.5259 12.5775 36.5878 12.8088 36.5997 13.0455C36.6116 13.2869 36.5734 13.5281 36.4875 13.7537C36.4016 13.9793 36.2699 14.1842 36.1009 14.3552ZM20.4999 35.8336C21.5704 35.8335 22.6077 35.4581 23.4352 34.7715C24.2626 34.0848 24.8289 33.1293 25.0377 32.0678C25.2464 31.0062 25.0846 29.9044 24.5799 28.95C24.0752 27.9955 23.2588 27.2475 22.2697 26.8334C21.2807 26.4194 20.1802 26.3648 19.1558 26.6791C18.1315 26.9933 17.2466 27.657 16.6519 28.5569C16.0573 29.4568 15.7896 30.5374 15.8946 31.6145C15.9997 32.6915 16.4708 33.6985 17.2278 34.4637C17.6564 34.8996 18.1663 35.2451 18.728 35.4803C19.2897 35.7155 19.892 35.8356 20.4999 35.8336ZM18.8062 29.4356C19.1975 29.0394 19.7127 28.7926 20.2639 28.7374C20.8151 28.6822 21.3682 28.822 21.8289 29.1329C22.2895 29.4438 22.6293 29.9066 22.7902 30.4425C22.9511 30.9783 22.9233 31.554 22.7114 32.0714C22.4994 32.5888 22.1166 33.0159 21.6281 33.2798C21.1396 33.5438 20.5757 33.6283 20.0324 33.5189C19.4892 33.4095 19.0003 33.1131 18.6491 32.6801C18.2979 32.247 18.106 31.7043 18.1063 31.1443C18.1086 30.828 18.1726 30.5153 18.2946 30.224C18.4166 29.9327 18.5942 29.6687 18.8173 29.4469L18.8062 29.4356Z" fill="#FF6B17"/>
</svg>
