<svg width="16" height="17" viewBox="0 0 16 17" fill="none" xmlns="http://www.w3.org/2000/svg">
<path d="M11.0733 14.6875C10.6316 14.6875 10.2567 14.5331 9.94867 14.2242C9.64111 13.9148 9.48733 13.5393 9.48733 13.0975C9.48733 13.0308 9.51667 12.8626 9.57533 12.5928L4.77733 9.74417C4.63333 9.91039 4.45711 10.0408 4.24867 10.1355C4.04022 10.2302 3.81644 10.2775 3.57733 10.2775C3.13911 10.2775 2.76667 10.1215 2.46 9.8095C2.15333 9.4975 2 9.1235 2 8.6875C2 8.2515 2.15333 7.8775 2.46 7.5655C2.76667 7.2535 3.13911 7.0975 3.57733 7.0975C3.816 7.0975 4.03978 7.14483 4.24867 7.2395C4.45756 7.33417 4.63378 7.46483 4.77733 7.6315L9.576 4.79483C9.54489 4.70861 9.52244 4.62306 9.50867 4.53817C9.49444 4.45283 9.48733 4.36572 9.48733 4.27683C9.48733 3.8355 9.64222 3.46017 9.952 3.15083C10.2618 2.84194 10.6378 2.6875 11.08 2.6875C11.5222 2.6875 11.8973 2.84239 12.2053 3.15217C12.5133 3.46194 12.6671 3.83794 12.6667 4.28017C12.6662 4.72239 12.5118 5.0975 12.2033 5.4055C11.8949 5.7135 11.5193 5.86728 11.0767 5.86683C10.8358 5.86683 10.6136 5.8175 10.41 5.71883C10.2064 5.62017 10.0331 5.4875 9.89 5.32083L5.09067 8.1695C5.12178 8.25572 5.14422 8.3415 5.158 8.42683C5.17222 8.51172 5.17933 8.59861 5.17933 8.6875C5.17933 8.77639 5.17222 8.86328 5.158 8.94817C5.14378 9.03305 5.12156 9.11883 5.09133 9.2055L9.89 12.0542C10.0336 11.8875 10.2069 11.7548 10.41 11.6562C10.6136 11.5575 10.8358 11.5082 11.0767 11.5082C11.5184 11.5082 11.894 11.6628 12.2033 11.9722C12.5122 12.2824 12.6667 12.6586 12.6667 13.1008C12.6667 13.5431 12.5118 13.9182 12.202 14.2262C11.8922 14.5342 11.5156 14.6879 11.0733 14.6875ZM11.0767 14.0208C11.3384 14.0208 11.5578 13.9324 11.7347 13.7555C11.9116 13.5786 12 13.3595 12 13.0982C12 12.8368 11.9116 12.6175 11.7347 12.4402C11.5578 12.2628 11.3387 12.1744 11.0773 12.1748C10.816 12.1753 10.5967 12.2637 10.4193 12.4402C10.242 12.6166 10.1536 12.8357 10.154 13.0975C10.1544 13.3593 10.2429 13.5786 10.4193 13.7555C10.5958 13.9324 10.8144 14.0208 11.0767 14.0208ZM3.57733 9.61017C3.84222 9.61017 4.06444 9.52172 4.244 9.34483C4.42311 9.16794 4.51267 8.94883 4.51267 8.6875C4.51267 8.42617 4.42311 8.20706 4.244 8.03017C4.06489 7.85328 3.84267 7.76483 3.57733 7.76483C3.31911 7.76483 3.10289 7.85328 2.92867 8.03017C2.75444 8.20706 2.66711 8.42617 2.66667 8.6875C2.66622 8.94883 2.75356 9.16817 2.92867 9.3455C3.10378 9.52283 3.32 9.61105 3.57733 9.61017ZM11.0773 5.20017C11.3387 5.20017 11.5578 5.11172 11.7347 4.93483C11.9116 4.75794 12 4.53861 12 4.27683C12 4.01506 11.9116 3.79594 11.7347 3.6195C11.5578 3.44306 11.3387 3.35461 11.0773 3.35417C10.816 3.35372 10.5967 3.44217 10.4193 3.6195C10.242 3.79683 10.1536 4.01617 10.154 4.2775C10.1544 4.53883 10.2429 4.75794 10.4193 4.93483C10.5958 5.11172 10.8151 5.20017 11.0773 5.20017Z" fill="#082134"/>
</svg>
