<svg width="32" height="32" viewBox="0 0 32 32" fill="none" xmlns="http://www.w3.org/2000/svg">
<circle cx="16" cy="16" r="16" transform="matrix(-1 0 0 1 32 0)" fill="#247DC0"/>
<g clip-path="url(#clip0_98_3748)">
<path d="M17.8482 9.50664L24.2549 15.9466L17.8482 22.3866C17.7904 22.4626 17.7168 22.5253 17.6327 22.5704C17.5485 22.6155 17.4556 22.642 17.3603 22.6481C17.265 22.6541 17.1695 22.6397 17.0802 22.6056C16.991 22.5716 16.9101 22.5188 16.8431 22.4508C16.776 22.3828 16.7244 22.3011 16.6916 22.2114C16.6588 22.1217 16.6457 22.026 16.6532 21.9308C16.6606 21.8356 16.6884 21.7431 16.7347 21.6595C16.781 21.576 16.8447 21.5034 16.9215 21.4466L21.7149 16.6133H8.96155C8.78474 16.6133 8.61517 16.5431 8.49015 16.418C8.36512 16.293 8.29488 16.1235 8.29488 15.9466C8.29488 15.7698 8.36512 15.6003 8.49015 15.4752C8.61517 15.3502 8.78474 15.28 8.96155 15.28H21.7149L16.9215 10.4466C16.7969 10.3211 16.7272 10.1512 16.7278 9.97428C16.7285 9.79737 16.7993 9.62796 16.9249 9.50331C17.0504 9.37866 17.2203 9.30898 17.3972 9.3096C17.5741 9.31023 17.7436 9.38111 17.8682 9.50664H17.8482Z" fill="white"/>
</g>
<defs>
<clipPath id="clip0_98_3748">
<rect width="24" height="24" fill="white" transform="matrix(-1 0 0 1 28.2422 4)"/>
</clipPath>
</defs>
</svg>
