<svg width="32" height="32" viewBox="0 0 32 32" fill="none" xmlns="http://www.w3.org/2000/svg">
<g clip-path="url(#clip0_98_3743)">
<path d="M14.394 9.50664L7.9873 15.9466L14.394 22.3866C14.4518 22.4626 14.5253 22.5253 14.6095 22.5704C14.6937 22.6155 14.7866 22.642 14.8819 22.6481C14.9772 22.6541 15.0727 22.6397 15.162 22.6056C15.2512 22.5716 15.3321 22.5188 15.3991 22.4508C15.4662 22.3828 15.5178 22.3011 15.5506 22.2114C15.5833 22.1217 15.5964 22.026 15.589 21.9308C15.5816 21.8356 15.5537 21.7431 15.5074 21.6595C15.4611 21.576 15.3974 21.5034 15.3206 21.4466L10.5273 16.6133H23.2806C23.4574 16.6133 23.627 16.5431 23.752 16.418C23.8771 16.293 23.9473 16.1235 23.9473 15.9466C23.9473 15.7698 23.8771 15.6003 23.752 15.4752C23.627 15.3502 23.4574 15.28 23.2806 15.28H10.5273L15.3206 10.4466C15.4453 10.3211 15.515 10.1512 15.5143 9.97428C15.5137 9.79737 15.4428 9.62796 15.3173 9.50331C15.1918 9.37866 15.0219 9.30898 14.8449 9.3096C14.668 9.31023 14.4986 9.38111 14.374 9.50664H14.394Z" fill="#247DC0"/>
</g>
<circle cx="16" cy="16" r="15.6815" stroke="#247DC0" stroke-width="0.636943"/>
<defs>
<clipPath id="clip0_98_3743">
<rect width="24" height="24" fill="white" transform="translate(4 4)"/>
</clipPath>
</defs>
</svg>
