<svg width="29" height="28" viewBox="0 0 29 28" fill="none" xmlns="http://www.w3.org/2000/svg">
<path d="M20.3707 3.09484C19.394 3.09484 18.5847 3.89531 18.5847 4.8614C18.5847 5.19263 18.6684 5.46865 18.8358 5.74468C17.9986 6.98679 16.994 9.11219 16.7428 12.2037H15.794V4.00572C16.4637 3.7297 16.9102 3.09484 16.9102 2.34957C16.9102 1.38348 16.1009 0.583008 15.1242 0.583008C14.1474 0.583008 13.3381 1.38348 13.3381 2.34957C13.3381 3.09484 13.8126 3.7297 14.4544 4.00572V12.2037H13.5056C13.2544 9.11219 12.2498 6.98679 11.4126 5.74468C11.5521 5.46865 11.6637 5.19263 11.6637 4.8614C11.6637 3.89531 10.8544 3.09484 9.87768 3.09484C8.90094 3.09484 8.09163 3.89531 8.09163 4.8614C8.09163 5.82749 8.90094 6.62796 9.87768 6.62796C10.0451 6.62796 10.2126 6.60036 10.38 6.54515C11.0777 7.64925 11.9428 9.49862 12.194 12.1761H11.4684C11.1056 12.1761 10.7986 12.4797 10.7986 12.8385V16.8685C10.7986 17.6414 10.1847 18.2486 9.40326 18.2486H7.00326C6.64047 18.2486 6.3335 18.5523 6.3335 18.9111C6.3335 19.2699 6.64047 19.5735 7.00326 19.5735H9.40326C10.9102 19.5735 12.1381 18.359 12.1381 16.8685V13.5286H18.1102V16.8961C18.1102 21.6437 14.2033 25.5081 9.40326 25.5081H7.00326C6.64047 25.5081 6.3335 25.8117 6.3335 26.1705C6.3335 26.5294 6.64047 26.833 7.00326 26.833H9.40326C14.9288 26.833 19.4219 22.389 19.4219 16.9237V12.8661C19.4219 12.5073 19.1149 12.2037 18.7521 12.2037H18.0544C18.3056 9.52623 19.1707 7.64925 19.8684 6.57276C20.0358 6.62796 20.2033 6.65556 20.3707 6.65556C21.3474 6.65556 22.1567 5.85509 22.1567 4.889C22.1567 3.89531 21.3474 3.09484 20.3707 3.09484Z" fill="white"/>
<path d="M10.8547 24.0171C10.9106 24.0171 10.9385 24.0171 10.9943 23.9895C13.5059 23.4375 15.5989 21.5881 16.4082 19.1591C16.5199 18.8278 16.3245 18.4414 15.9896 18.331C15.6268 18.2206 15.264 18.4138 15.1524 18.745C14.4827 20.7324 12.7803 22.2506 10.7152 22.6922C10.3524 22.775 10.1292 23.1338 10.2129 23.4651C10.2687 23.8239 10.5478 24.0171 10.8547 24.0171Z" fill="white"/>
</svg>
