<svg width="29" height="28" viewBox="0 0 29 28" fill="none" xmlns="http://www.w3.org/2000/svg">
<path d="M20.4231 12.6832C18.6494 11.5621 16.5998 10.9676 14.508 10.9676C12.4163 10.9676 10.3666 11.5621 8.59298 12.6832C8.25671 12.8978 7.97281 13.1866 7.76253 13.5278C7.55225 13.8691 7.42103 14.254 7.3787 14.6538C7.33097 15.0678 7.3765 15.4874 7.51187 15.8811C7.64725 16.2748 7.86897 16.6325 8.16042 16.9273L8.26987 17.038C8.70253 17.4655 9.26547 17.7325 9.86721 17.7956C10.4689 17.8588 11.0741 17.7143 11.5844 17.3857C12.4649 16.8438 13.4759 16.5572 14.5067 16.5572C15.5376 16.5572 16.5485 16.8438 17.4291 17.3857C17.8676 17.6598 18.3727 17.8057 18.8883 17.8072C19.2351 17.8089 19.5788 17.7406 19.8992 17.6062C20.2196 17.4719 20.5102 17.2742 20.754 17.0248L20.8635 16.9142C21.1549 16.6193 21.3766 16.2617 21.512 15.8679C21.6474 15.4742 21.6929 15.0546 21.6452 14.6406C21.6003 14.2424 21.4671 13.8596 21.2555 13.5207C21.0439 13.1817 20.7593 12.8955 20.4231 12.6832ZM19.7456 15.8103L19.6362 15.921C19.4525 16.0983 19.2142 16.2068 18.9611 16.2284C18.708 16.25 18.4552 16.1833 18.2447 16.0395C17.1183 15.3453 15.8246 14.9781 14.5054 14.9781C13.1863 14.9781 11.8926 15.3453 10.7662 16.0395C10.5561 16.1831 10.3037 16.2497 10.051 16.2281C9.79836 16.2065 9.5606 16.0981 9.37731 15.921L9.26787 15.8103C9.14189 15.6834 9.04597 15.5293 8.9873 15.3596C8.92863 15.1899 8.90874 15.0089 8.92912 14.8303C8.9425 14.6624 8.99446 14.4999 9.08086 14.3558C9.16726 14.2118 9.28572 14.0901 9.42682 14.0004C10.9508 13.0384 12.7114 12.5284 14.508 12.5284C16.3047 12.5284 18.0653 13.0384 19.5893 14.0004C19.7272 14.0882 19.8435 14.2068 19.9293 14.3469C20.0151 14.4871 20.0682 14.6452 20.0843 14.8092C20.106 14.9891 20.0867 15.1716 20.028 15.3428C19.9693 15.514 19.8727 15.6694 19.7456 15.7971V15.8103ZM26.2991 7.03752C22.9429 4.34952 18.7818 2.89641 14.5002 2.91721C10.2161 2.89934 6.05379 4.35722 2.69877 7.0507C2.39904 7.2913 2.15273 7.59297 1.97585 7.9361C1.79898 8.27923 1.69548 8.65614 1.6721 9.04236C1.64747 9.43315 1.70433 9.82481 1.839 10.192C1.97366 10.5591 2.18313 10.8936 2.45383 11.1736C2.92526 11.6616 3.55828 11.9565 4.23149 12.0017C4.90471 12.0469 5.57074 11.8393 6.10188 11.4186C8.50512 9.54685 11.4535 8.5318 14.4872 8.5318C17.5209 8.5318 20.4693 9.54685 22.8725 11.4186C23.3999 11.8355 24.0599 12.0429 24.7281 12.0017C25.3963 11.9604 26.0264 11.6734 26.4997 11.1947L26.5258 11.171C26.8012 10.8918 27.0151 10.5569 27.1535 10.1882C27.2918 9.81955 27.3514 9.42545 27.3283 9.03182C27.3052 8.64491 27.2015 8.2673 27.0241 7.92365C26.8468 7.58001 26.5997 7.27806 26.2991 7.03752ZM25.4209 10.0487L25.3975 10.0724C25.1944 10.28 24.9229 10.4049 24.6346 10.4234C24.3463 10.4418 24.0614 10.3526 23.834 10.1725C21.1543 8.08478 17.8664 6.95256 14.4833 6.95256C11.1002 6.95256 7.81227 8.08478 5.13254 10.1725C4.90421 10.3516 4.61875 10.4395 4.33047 10.4196C4.04219 10.3997 3.77121 10.2733 3.56909 10.0645C3.45134 9.94314 3.36011 9.79811 3.30131 9.63882C3.24251 9.47953 3.21744 9.30953 3.22773 9.13983C3.23658 8.97466 3.28021 8.81331 3.35571 8.66656C3.4312 8.51981 3.53682 8.39105 3.6655 8.2889C6.74606 5.8172 10.5675 4.48011 14.5002 4.49789C18.4308 4.47771 22.2511 5.81101 25.3323 8.27836C25.4615 8.38069 25.5674 8.50984 25.6429 8.65709C25.7184 8.80434 25.7618 8.96627 25.7701 9.13193C25.7784 9.30092 25.7517 9.4698 25.6915 9.6277C25.6314 9.7856 25.5392 9.92902 25.4209 10.0487ZM14.5002 25.0836C15.2496 25.0836 15.9757 24.8208 16.5549 24.3401C17.1341 23.8594 17.5305 23.1906 17.6767 22.4475C17.8228 21.7045 17.7095 20.9332 17.3562 20.2651C17.0029 19.597 16.4314 19.0734 15.7391 18.7835C15.0468 18.4936 14.2764 18.4555 13.5594 18.6754C12.8423 18.8954 12.2229 19.36 11.8066 19.9899C11.3904 20.6199 11.203 21.3763 11.2765 22.1302C11.3501 22.8842 11.6799 23.589 12.2098 24.1247C12.5098 24.4298 12.8667 24.6717 13.2599 24.8363C13.6531 25.0009 14.0747 25.085 14.5002 25.0836ZM13.3146 20.605C13.5886 20.3277 13.9492 20.1549 14.335 20.1163C14.7209 20.0776 15.108 20.1755 15.4305 20.3931C15.753 20.6108 15.9908 20.9348 16.1034 21.3098C16.2161 21.6849 16.1966 22.0879 16.0482 22.4501C15.8999 22.8123 15.6319 23.1112 15.29 23.296C14.948 23.4807 14.5533 23.5399 14.173 23.4633C13.7927 23.3868 13.4505 23.1793 13.2046 22.8761C12.9588 22.573 12.8245 22.1931 12.8247 21.8011C12.8263 21.5797 12.8711 21.3608 12.9565 21.1569C13.0419 20.953 13.1663 20.7682 13.3224 20.6129L13.3146 20.605Z" fill="white"/>
</svg>
