<svg width="20" height="20" viewBox="0 0 20 20" fill="none" xmlns="http://www.w3.org/2000/svg">
<path d="M11.1265 7.22553C11.0585 7.16074 11.0039 7.0826 10.9661 6.99579C10.9283 6.90897 10.9079 6.81525 10.9063 6.72022C10.9046 6.6252 10.9217 6.5308 10.9565 6.44268C10.9914 6.35455 11.0432 6.2745 11.1089 6.20729C11.1747 6.14009 11.253 6.08711 11.3392 6.05151C11.4254 6.01591 11.5178 5.99843 11.6107 6.00011C11.7037 6.00179 11.7954 6.02259 11.8803 6.06127C11.9652 6.09995 12.0416 6.15572 12.105 6.22526L15.7975 9.99987C15.9272 10.1326 16 10.3124 16 10.5C16 10.6876 15.9272 10.8674 15.7975 11.0001L12.105 14.7747C12.0416 14.8443 11.9652 14.9001 11.8803 14.9387C11.7954 14.9774 11.7037 14.9982 11.6107 14.9999C11.5178 15.0016 11.4254 14.9841 11.3392 14.9485C11.253 14.9129 11.1747 14.8599 11.1089 14.7927C11.0432 14.7255 10.9914 14.6454 10.9565 14.5573C10.9217 14.4692 10.9046 14.3748 10.9063 14.2798C10.9079 14.1847 10.9283 14.091 10.9661 14.0042C11.0039 13.9174 11.0585 13.8393 11.1265 13.7745L13.6374 11.2077H4.69234C4.50872 11.2077 4.33262 11.1332 4.20278 11.0004C4.07294 10.8677 4 10.6877 4 10.5C4 10.3123 4.07294 10.1323 4.20278 9.99955C4.33262 9.86683 4.50872 9.79226 4.69234 9.79226H13.6374L11.1265 7.22553Z" fill="#247DC0"/>
</svg>
