<svg width="48" height="48" viewBox="0 0 48 48" fill="none" xmlns="http://www.w3.org/2000/svg">
<path d="M24 40.5C25.6569 40.5 27 39.1569 27 37.5C27 35.8431 25.6569 34.5 24 34.5C22.3431 34.5 21 35.8431 21 37.5C21 39.1569 22.3431 40.5 24 40.5Z" fill="#082134"/>
<path d="M15.7051 28.8498L17.8261 30.9693C19.4886 29.3867 21.6953 28.5029 23.9906 28.5004C26.286 28.4979 28.4946 29.3769 30.1606 30.9558L32.2801 28.8363C30.0522 26.6937 27.0805 25.4982 23.9896 25.501C20.8986 25.5038 17.9291 26.7032 15.7051 28.8498Z" fill="#082134"/>
<path d="M9.34326 22.4898L11.4643 24.6093C14.8122 21.3364 19.3073 19.5027 23.9892 19.4999C28.6711 19.4971 33.1684 21.3254 36.5203 24.5943L38.6398 22.4748C34.7262 18.6423 29.466 16.4972 23.9884 16.5C18.5109 16.5028 13.2529 18.6533 9.34326 22.4898Z" fill="#082134"/>
<path d="M45 16.1119C39.4034 10.5936 31.8596 7.5 24 7.5C16.1404 7.5 8.59661 10.5936 3 16.1119V16.1464L5.106 18.2524C10.1375 13.2883 16.9205 10.5038 23.9887 10.501C31.0568 10.4982 37.8421 13.2773 42.8775 18.2374L45 16.1149V16.1119Z" fill="#082134"/>
</svg>
