<svg width="48" height="48" viewBox="0 0 48 48" fill="none" xmlns="http://www.w3.org/2000/svg">
<path d="M23.628 36.2313C24.6015 40.4107 26.1456 44.1618 28.2187 47.3812C28.467 47.7672 28.8953 48.0003 29.3533 48.0003H29.3866C29.8572 47.9885 30.2873 47.7321 30.5221 47.3245L32.7185 43.5149L38.3142 45.4098C38.8765 45.6005 39.4974 45.4008 39.8438 44.9176C40.1902 44.4353 40.1803 43.7829 39.8195 43.3114C37.3667 40.1019 35.6985 36.5956 34.8636 32.8876C34.7799 32.5187 34.546 32.202 34.2176 32.0139C33.8892 31.8258 33.4977 31.7836 33.1369 31.8987L24.5333 34.6394C23.8629 34.8528 23.4687 35.5457 23.628 36.2313Z" fill="#3399FF"/>
<path d="M23.9079 36.2313C22.9343 40.4107 21.3904 44.1618 19.3173 47.3812C19.0689 47.7672 18.6407 48.0003 18.1826 48.0003H18.1493C17.6787 47.9885 17.2487 47.7321 17.0138 47.3245L14.8174 43.5149L9.22179 45.4098C8.65948 45.6005 8.03857 45.4008 7.69216 44.9176C7.34576 44.4353 7.35569 43.7829 7.71644 43.3114C10.1692 40.1019 11.8374 36.5956 12.6723 32.8876C12.7561 32.5187 12.99 32.202 13.3184 32.0139C13.6468 31.8258 14.0382 31.7836 14.399 31.8987L23.0027 34.6394C23.6731 34.8528 24.0672 35.5457 23.9079 36.2313Z" fill="#4DC3FF"/>
<path d="M23.7679 0L30.2822 16.3953L23.7679 36.8438C22.2369 36.8438 20.8016 36.2428 19.7263 35.1516C19.0738 34.4897 18.1382 34.185 17.2223 34.3359C15.7138 34.5853 14.2016 34.2272 12.9641 33.3281C11.7238 32.4272 10.9138 31.095 10.6841 29.5781C10.5444 28.6566 9.96507 27.8578 9.13445 27.4406C7.76851 26.7534 6.75507 25.5731 6.28164 24.1172C5.8082 22.6594 5.93476 21.1059 6.63788 19.7447C7.06538 18.9159 7.06538 17.9278 6.63788 17.1C5.93476 15.7378 5.8082 14.1844 6.28164 12.7266C6.75507 11.2706 7.76851 10.0903 9.13445 9.40313C9.96507 8.98594 10.5444 8.18719 10.6841 7.26562C10.9138 5.74875 11.7238 4.41656 12.9641 3.51562C14.2016 2.61656 15.7138 2.25844 17.2223 2.50781C18.1382 2.65875 19.0738 2.35406 19.7263 1.69219C20.8016 0.600937 22.2369 0 23.7679 0Z" fill="#FF6666"/>
<path d="M40.8981 19.7438C41.6012 21.1059 41.7278 22.6594 41.2543 24.1172C40.7809 25.5731 39.7674 26.7534 38.4015 27.4406C37.5709 27.8578 36.9915 28.6566 36.8518 29.5781C36.6221 31.095 35.8121 32.4272 34.5718 33.3281C33.3343 34.2272 31.8221 34.5853 30.3137 34.3359C29.3978 34.185 28.4621 34.4897 27.8096 35.1516C26.7343 36.2428 25.299 36.8438 23.7681 36.8438V0C25.299 0 26.7343 0.600937 27.8096 1.69219C28.3524 2.2425 29.0903 2.54531 29.8496 2.54531C30.0043 2.54531 30.159 2.53312 30.3137 2.50781C31.8221 2.25844 33.3343 2.61656 34.5718 3.51562C35.8121 4.41656 36.6221 5.74875 36.8518 7.26562C36.9915 8.18719 37.5709 8.98594 38.4015 9.40313C39.7674 10.0903 40.7809 11.2706 41.2543 12.7266C41.7278 14.1844 41.6012 15.7378 40.8981 17.0991C40.4706 17.9278 40.4706 18.9159 40.8981 19.7438Z" fill="#E62E6B"/>
<path d="M23.7677 8.27148L28.6355 18.4218L23.7677 28.5721C18.212 28.5721 13.6914 24.0187 13.6914 18.4218C13.6914 12.8249 18.212 8.27148 23.7677 8.27148Z" fill="#FFBB33"/>
<path d="M33.8443 18.4218C33.8443 24.0187 29.3237 28.5721 23.7681 28.5721V8.27148C29.3237 8.27148 33.8443 12.8249 33.8443 18.4218Z" fill="#FF884D"/>
<path d="M23.7679 10.0312L24.8451 8.43234L23.7679 7.21875C17.602 7.21875 12.5854 12.2447 12.5854 18.4219C12.5854 24.5991 17.602 29.625 23.7679 29.625L25.0852 28.0467L23.7679 26.8125C19.1526 26.8125 15.3979 23.0484 15.3979 18.4219C15.3979 13.7953 19.1526 10.0312 23.7679 10.0312Z" fill="#FFE14D"/>
<path d="M34.9506 18.4219C34.9506 24.5991 29.934 29.625 23.7681 29.625V26.8125C28.3834 26.8125 32.1381 23.0484 32.1381 18.4219C32.1381 13.7953 28.3834 10.0312 23.7681 10.0312V7.21875C29.934 7.21875 34.9506 12.2447 34.9506 18.4219Z" fill="#FFBB33"/>
<path d="M23.768 17.6814L25.3378 18.229L23.768 21.6611C23.5074 21.9086 23.1614 22.0473 22.8014 22.0473C22.4283 22.0473 22.0693 21.8982 21.8058 21.6339L19.3111 19.1345C18.7627 18.5842 18.7636 17.6936 19.313 17.1451C19.8624 16.5967 20.753 16.5976 21.3014 17.147L22.8014 18.6498L23.768 17.6814Z" fill="#E6F7FF"/>
<path d="M28.2249 17.1968L23.7971 21.6339C23.7878 21.6433 23.7784 21.6527 23.7681 21.6611V17.6814L26.2346 15.2102C26.7831 14.6599 27.6737 14.6589 28.2231 15.2083C28.7724 15.7568 28.7734 16.6474 28.2249 17.1968Z" fill="#CCEEFF"/>
</svg>
