<svg width="64" height="48" viewBox="0 0 64 48" fill="none" xmlns="http://www.w3.org/2000/svg">
<path d="M6.42 24.24H10.4V25.66H6.42V29.78H4.98V25.66H1V24.24H4.98V20.1H6.42V24.24Z" fill="#082134"/>
<path d="M40 40.5C41.6569 40.5 43 39.1569 43 37.5C43 35.8431 41.6569 34.5 40 34.5C38.3431 34.5 37 35.8431 37 37.5C37 39.1569 38.3431 40.5 40 40.5Z" fill="#082134"/>
<path d="M31.7051 28.8498L33.8261 30.9693C35.4886 29.3867 37.6953 28.5029 39.9906 28.5004C42.286 28.4979 44.4946 29.3769 46.1606 30.9558L48.2801 28.8363C46.0522 26.6937 43.0805 25.4982 39.9896 25.501C36.8986 25.5038 33.9291 26.7032 31.7051 28.8498Z" fill="#082134"/>
<path d="M25.3433 22.4898L27.4643 24.6093C30.8122 21.3364 35.3073 19.5027 39.9892 19.4999C44.6711 19.4971 49.1684 21.3254 52.5203 24.5943L54.6398 22.4748C50.7262 18.6423 45.466 16.4972 39.9884 16.5C34.5109 16.5028 29.2529 18.6533 25.3433 22.4898Z" fill="#082134"/>
<path d="M61 16.1119C55.4034 10.5936 47.8596 7.5 40 7.5C32.1404 7.5 24.5966 10.5936 19 16.1119V16.1464L21.106 18.2524C26.1375 13.2883 32.9205 10.5038 39.9887 10.501C47.0568 10.4982 53.8421 13.2773 58.8775 18.2374L61 16.1149V16.1119Z" fill="#082134"/>
</svg>
