<svg width="116" height="116" viewBox="0 0 116 116" fill="none" xmlns="http://www.w3.org/2000/svg">
<g clip-path="url(#clip0_331_3704)">
<path d="M50.2509 31.6112C49.5889 30.5058 48.3584 29.8712 47.0736 29.9688L19.457 32.1021C16.661 32.3183 14.1704 33.7837 12.6234 36.1231L1.03372 53.6526C-0.139182 55.4268 -0.325868 57.6468 0.53461 59.5916C1.39486 61.5364 3.16317 62.8915 5.26452 63.2171L27.6578 66.6855C27.832 66.7124 28.006 66.7258 28.1786 66.7258C29.3257 66.7256 30.4109 66.144 31.0415 65.1576L50.1988 35.1874C50.8927 34.1015 50.9127 32.7168 50.2509 31.6112Z" fill="#E45A6E"/>
<path d="M84.3883 65.7494C83.2827 65.0874 81.8978 65.1076 80.8121 65.8015L50.8422 84.9588C49.7073 85.6842 49.1081 87.0114 49.314 88.3425L52.7822 110.736C53.1078 112.837 54.4631 114.605 56.4081 115.466C57.2169 115.824 58.0733 116 58.9256 116C60.1221 116 61.3109 115.652 62.3469 114.967L79.8766 103.377C82.2161 101.83 83.6817 99.3395 83.8974 96.5433L86.0307 68.9269C86.1301 67.6421 85.494 66.4116 84.3883 65.7494Z" fill="#D82E44"/>
<path d="M43.6965 93.4061C45.0491 94.7586 46.971 95.3914 48.8576 95.0758C76.5234 90.4499 98.4157 67.5437 106.75 51.43C116.005 33.5376 116.348 14.6298 115.864 5.76218C115.698 2.72355 113.276 0.301388 110.237 0.135546C101.37 -0.347935 82.4622 -0.0051484 64.5696 9.24963C48.4561 17.5841 25.5499 39.4765 20.924 67.1422C20.6086 69.0288 21.2412 70.9507 22.5938 72.3033L43.6965 93.4061Z" fill="#F1F1FB"/>
<path d="M114.129 1.87207L33.1455 82.8551L43.6969 93.4065C45.0495 94.759 46.9714 95.3916 48.8579 95.0762C76.5237 90.4503 98.4161 67.5441 106.751 51.4306C116.005 33.5382 116.348 14.6304 115.864 5.7628C115.781 4.24348 115.134 2.87823 114.129 1.87207Z" fill="#D7D6FB"/>
<path d="M79.462 53.5219C75.11 53.5222 70.7598 51.866 67.4468 48.553C64.2374 45.3438 62.4697 41.0765 62.4697 36.5378C62.4697 31.9991 64.2374 27.7318 67.4468 24.5226C74.0717 17.8975 84.8517 17.8973 91.477 24.5226C94.6864 27.7318 96.4538 31.9991 96.4538 36.5378C96.4538 41.0765 94.6864 45.3438 91.477 48.553C88.1649 51.8653 83.8126 53.5215 79.462 53.5219Z" fill="#466288"/>
<path d="M20.924 67.1422C20.6086 69.0288 21.2412 70.9507 22.5938 72.3033L43.6965 93.406C45.0491 94.7586 46.971 95.3912 48.8576 95.0758C54.8775 94.0692 60.6236 92.1964 66.0166 89.7172L26.2826 49.9834C23.8034 55.3762 21.9306 61.1225 20.924 67.1422Z" fill="#466288"/>
<path d="M3.46717 95.5946C4.33672 95.5946 5.20672 95.2627 5.87009 94.5991L16.9655 83.5036C18.2927 82.1766 18.2927 80.0248 16.9655 78.6976C15.6386 77.3703 13.4869 77.3703 12.1595 78.6976L1.06425 89.793C-0.262953 91.12 -0.262953 93.2719 1.06425 94.5991C1.72785 95.2629 2.5974 95.5946 3.46717 95.5946Z" fill="#FDB43A"/>
<path d="M27.1342 88.8663C25.8072 87.5393 23.6553 87.5393 22.3281 88.8663L0.996379 110.198C-0.330824 111.525 -0.330824 113.677 0.996379 115.004C1.65998 115.668 2.52975 115.999 3.39953 115.999C4.2693 115.999 5.13907 115.668 5.80245 115.004L27.1342 93.6722C28.4614 92.3452 28.4614 90.1933 27.1342 88.8663Z" fill="#FDB43A"/>
<path d="M37.3025 99.0343C35.9755 97.7073 33.8236 97.7073 32.4964 99.0343L21.4012 110.13C20.074 111.456 20.074 113.608 21.4012 114.936C22.0648 115.599 22.9345 115.931 23.8041 115.931C24.6736 115.931 25.5436 115.599 26.207 114.936L37.3025 103.84C38.6297 102.513 38.6297 100.361 37.3025 99.0343Z" fill="#F57A21"/>
<path d="M0.996094 115.004C1.6597 115.668 2.52947 116 3.39924 116C4.26902 116 5.13879 115.668 5.80216 115.004L27.1339 93.6723C28.4611 92.3453 28.4611 90.1934 27.1339 88.8662L0.996094 115.004Z" fill="#F57A21"/>
<path d="M33.1455 82.8549L43.6969 93.4063C45.0495 94.7589 46.9714 95.3915 48.8579 95.0761C54.8779 94.0695 60.6239 92.1967 66.017 89.7175L46.1501 69.8506L33.1455 82.8549Z" fill="#354A67"/>
<path d="M67.4468 48.5529C70.7598 51.8659 75.11 53.5222 79.462 53.5218C83.8126 53.5213 88.1648 51.8649 91.4769 48.5529C94.6864 45.3434 96.4538 41.0763 96.4538 36.5377C96.4538 31.999 94.6864 27.7317 91.4769 24.5225L67.4468 48.5529Z" fill="#354A67"/>
<path d="M79.4619 26.3477C76.8512 26.3477 74.2403 27.3414 72.2529 29.329C70.3274 31.2545 69.2666 33.8147 69.2666 36.538C69.2666 39.2613 70.3274 41.8214 72.2529 43.747C76.228 47.722 82.6963 47.7222 86.6714 43.747C88.5969 41.8212 89.6574 39.261 89.6574 36.5378C89.6574 33.8145 88.5969 31.2543 86.6714 29.3288C84.6837 27.3414 82.073 26.3477 79.4619 26.3477Z" fill="#4BBEFD"/>
<path d="M86.6711 29.3291L72.2529 43.7473C76.228 47.7224 82.6963 47.7226 86.6711 43.7473C88.5967 41.8215 89.6572 39.2614 89.6572 36.5381C89.6572 33.8148 88.5969 31.2547 86.6711 29.3291Z" fill="#0590FB"/>
</g>
<defs>
<clipPath id="clip0_331_3704">
<rect width="116" height="116" fill="white"/>
</clipPath>
</defs>
</svg>
