<svg width="48" height="48" viewBox="0 0 48 48" fill="none" xmlns="http://www.w3.org/2000/svg">
<g clip-path="url(#clip0_2001_1266)">
<path d="M24 48C10.7663 48 0 37.2337 0 24C0 10.7663 10.7663 0 24 0C37.2337 0 48 10.7663 48 24C48 37.2337 37.2337 48 24 48Z" fill="#FFF16B"/>
<path d="M48 24C48 10.7663 37.2337 0 24 0V48C37.2337 48 48 37.2337 48 24Z" fill="#FFD400"/>
<path d="M24 42.2812C13.9197 42.2812 5.71875 34.0803 5.71875 24C5.71875 13.9197 13.9197 5.71875 24 5.71875C34.0803 5.71875 42.2812 13.9197 42.2812 24C42.2812 34.0803 34.0803 42.2812 24 42.2812Z" fill="#FFD400"/>
<path d="M42.2812 24C42.2812 13.9197 34.0803 5.71875 24 5.71875V42.2812C34.0803 42.2812 42.2812 34.0803 42.2812 24Z" fill="#FF9F00"/>
<path d="M28.1379 21.2963L25.098 17.4965C24.5351 16.7928 23.4648 16.7928 22.9019 17.4965L19.862 21.2963L15.2538 18.9922C14.2072 18.4689 13.0165 19.3783 13.246 20.5258L15.121 29.9008C15.2525 30.558 15.8296 31.0312 16.5 31.0312H31.5C32.1703 31.0312 32.7474 30.558 32.8789 29.9008L34.7539 20.5258C34.9834 19.3783 33.7928 18.4689 32.7461 18.9922L28.1379 21.2963Z" fill="#FFF16B"/>
<path d="M31.5 31.0312C32.1703 31.0312 32.7474 30.5581 32.879 29.9008L34.754 20.5258C34.9835 19.3783 33.7928 18.4689 32.7461 18.9922L28.1379 21.2963L25.0981 17.4966C24.8167 17.1447 24.4083 16.9688 24 16.9688V31.0312H31.5Z" fill="#FFD400"/>
</g>
<defs>
<clipPath id="clip0_2001_1266">
<rect width="48" height="48" fill="white"/>
</clipPath>
</defs>
</svg>
