<svg width="40" height="40" viewBox="0 0 40 40" fill="none" xmlns="http://www.w3.org/2000/svg">
<circle cx="20" cy="20" r="20" fill="#E1781B"/>
<g clip-path="url(#clip0_170_10112)">
<path d="M16.2859 20.712C16.3551 20.7837 16.4379 20.8408 16.5294 20.8801C16.6209 20.9194 16.7193 20.9401 16.8189 20.941C16.9185 20.9418 17.0172 20.9229 17.1094 20.8852C17.2016 20.8474 17.2853 20.7918 17.3557 20.7213C17.4261 20.6509 17.4818 20.5672 17.5195 20.475C17.5573 20.3828 17.5762 20.2841 17.5754 20.1845C17.5745 20.0849 17.5538 19.9865 17.5145 19.895C17.4752 19.8035 17.4181 19.7207 17.3464 19.6515C16.6434 18.9483 16.2485 17.9947 16.2485 17.0003C16.2485 16.0059 16.6434 15.0523 17.3464 14.349C17.4181 14.2799 17.4752 14.1971 17.5145 14.1056C17.5538 14.0141 17.5745 13.9157 17.5754 13.8161C17.5762 13.7165 17.5573 13.6177 17.5195 13.5256C17.4818 13.4334 17.4261 13.3497 17.3557 13.2792C17.2853 13.2088 17.2016 13.1531 17.1094 13.1154C17.0172 13.0777 16.9185 13.0587 16.8189 13.0596C16.7193 13.0605 16.6209 13.0812 16.5294 13.1205C16.4379 13.1598 16.3551 13.2169 16.2859 13.2885C15.7984 13.7761 15.4116 14.3548 15.1477 14.9918C14.8839 15.6288 14.748 16.3116 14.748 17.001C14.748 17.6905 14.8839 18.3733 15.1477 19.0102C15.4116 19.6472 15.7984 20.226 16.2859 20.7135V20.712Z" fill="white"/>
<path d="M22.65 20.7117C22.7907 20.8523 22.9814 20.9313 23.1803 20.9313C23.3792 20.9313 23.5699 20.8523 23.7105 20.7117C24.1981 20.2242 24.5849 19.6454 24.8487 19.0084C25.1126 18.3714 25.2484 17.6887 25.2484 16.9992C25.2484 16.3097 25.1126 15.627 24.8487 14.99C24.5849 14.353 24.1981 13.7742 23.7105 13.2867C23.5691 13.1501 23.3796 13.0745 23.183 13.0762C22.9863 13.0779 22.7982 13.1568 22.6592 13.2958C22.5201 13.4349 22.4412 13.623 22.4395 13.8197C22.4378 14.0163 22.5134 14.2058 22.65 14.3472C23.353 15.0504 23.748 16.0041 23.748 16.9985C23.748 17.9928 23.353 18.9465 22.65 19.6497C22.5802 19.7194 22.5248 19.8021 22.487 19.8933C22.4491 19.9844 22.4297 20.0821 22.4297 20.1807C22.4297 20.2794 22.4491 20.377 22.487 20.4682C22.5248 20.5593 22.5802 20.642 22.65 20.7117Z" fill="white"/>
<path d="M14.1664 22.8336C14.3079 22.9702 14.4973 23.0458 14.694 23.0441C14.8906 23.0424 15.0787 22.9635 15.2178 22.8245C15.3568 22.6854 15.4357 22.4973 15.4374 22.3006C15.4391 22.104 15.3635 21.9145 15.2269 21.7731C13.9629 20.5062 13.253 18.7897 13.253 17.0001C13.253 15.2105 13.9629 13.4939 15.2269 12.2271C15.3635 12.0856 15.4391 11.8962 15.4374 11.6995C15.4357 11.5029 15.3568 11.3148 15.2178 11.1757C15.0787 11.0367 14.8906 10.9578 14.694 10.9561C14.4973 10.9544 14.3079 11.03 14.1664 11.1666C12.6215 12.7149 11.7539 14.8128 11.7539 17.0001C11.7539 19.1873 12.6215 21.2853 14.1664 22.8336Z" fill="white"/>
<path d="M24.7719 21.773C24.7003 21.8422 24.6432 21.9249 24.6039 22.0164C24.5646 22.1079 24.5439 22.2063 24.543 22.3059C24.5421 22.4055 24.5611 22.5043 24.5988 22.5964C24.6365 22.6886 24.6922 22.7723 24.7626 22.8428C24.8331 22.9132 24.9168 22.9689 25.009 23.0066C25.1011 23.0443 25.1999 23.0633 25.2995 23.0624C25.3991 23.0615 25.4975 23.0408 25.589 23.0015C25.6805 22.9622 25.7632 22.9051 25.8324 22.8335C27.3773 21.2851 28.245 19.1872 28.245 17C28.245 14.8127 27.3773 12.7148 25.8324 11.1665C25.7632 11.0948 25.6805 11.0377 25.589 10.9984C25.4975 10.9591 25.3991 10.9384 25.2995 10.9375C25.1999 10.9367 25.1011 10.9556 25.009 10.9933C24.9168 11.0311 24.8331 11.0868 24.7626 11.1572C24.6922 11.2276 24.6365 11.3113 24.5988 11.4035C24.5611 11.4957 24.5421 11.5944 24.543 11.694C24.5439 11.7936 24.5646 11.892 24.6039 11.9835C24.6432 12.075 24.7003 12.1578 24.7719 12.227C26.036 13.4938 26.7459 15.2103 26.7459 17C26.7459 18.7896 26.036 20.5061 24.7719 21.773Z" fill="white"/>
<path d="M10.2491 17C10.2456 15.7191 10.4963 14.4503 10.9865 13.2669C11.4768 12.0835 12.1968 11.0092 13.1051 10.106C13.2417 9.96454 13.3173 9.77509 13.3156 9.57844C13.3139 9.3818 13.235 9.19369 13.096 9.05463C12.9569 8.91557 12.7688 8.8367 12.5721 8.83499C12.3755 8.83328 12.186 8.90888 12.0446 9.04549C9.93509 11.1552 8.75 14.0165 8.75 17C8.75 19.9835 9.93509 22.8447 12.0446 24.9545C12.1138 25.0261 12.1965 25.0833 12.288 25.1226C12.3795 25.1619 12.478 25.1826 12.5775 25.1834C12.6771 25.1843 12.7759 25.1653 12.8681 25.1276C12.9602 25.0899 13.044 25.0342 13.1144 24.9638C13.1848 24.8934 13.2405 24.8096 13.2782 24.7175C13.3159 24.6253 13.3349 24.5265 13.334 24.4269C13.3332 24.3274 13.3125 24.2289 13.2732 24.1374C13.2339 24.0459 13.1767 23.9632 13.1051 23.894C12.1968 22.9908 11.4768 21.9164 10.9865 20.7331C10.4963 19.5497 10.2456 18.2809 10.2491 17Z" fill="white"/>
<path d="M27.9535 9.04549C27.8121 8.90888 27.6226 8.83328 27.426 8.83499C27.2293 8.8367 27.0412 8.91557 26.9022 9.05463C26.7631 9.19369 26.6842 9.3818 26.6825 9.57844C26.6808 9.77509 26.7564 9.96454 26.893 10.106C28.7213 11.9345 29.7484 14.4143 29.7484 17C29.7484 19.5857 28.7213 22.0655 26.893 23.894C26.8214 23.9632 26.7643 24.0459 26.725 24.1374C26.6856 24.2289 26.665 24.3274 26.6641 24.4269C26.6632 24.5265 26.6822 24.6253 26.7199 24.7175C26.7576 24.8096 26.8133 24.8934 26.8837 24.9638C26.9542 25.0342 27.0379 25.0899 27.1301 25.1276C27.2222 25.1653 27.321 25.1843 27.4206 25.1834C27.5202 25.1826 27.6186 25.1619 27.7101 25.1226C27.8016 25.0833 27.8843 25.0261 27.9535 24.9545C30.063 22.8447 31.2481 19.9835 31.2481 17C31.2481 14.0165 30.063 11.1552 27.9535 9.04549Z" fill="white"/>
<path d="M25.25 29.75H24.3012L20.9517 19.031C21.4157 18.8144 21.792 18.446 22.0183 17.9867C22.2446 17.5274 22.3075 17.0046 22.1966 16.5047C22.0856 16.0049 21.8075 15.5578 21.4081 15.2373C21.0088 14.9168 20.512 14.7422 20 14.7422C19.488 14.7422 18.9912 14.9168 18.5919 15.2373C18.1925 15.5578 17.9144 16.0049 17.8034 16.5047C17.6925 17.0046 17.7554 17.5274 17.9817 17.9867C18.208 18.446 18.5843 18.8144 19.0482 19.031L15.6988 29.75H14.75C14.5511 29.75 14.3603 29.829 14.2197 29.9696C14.079 30.1103 14 30.3011 14 30.5C14 30.6989 14.079 30.8897 14.2197 31.0303C14.3603 31.171 14.5511 31.25 14.75 31.25H25.25C25.4489 31.25 25.6397 31.171 25.7803 31.0303C25.921 30.8897 26 30.6989 26 30.5C26 30.3011 25.921 30.1103 25.7803 29.9696C25.6397 29.829 25.4489 29.75 25.25 29.75ZM18.6762 25.25H21.3237L21.7925 26.75H18.2075L18.6762 25.25ZM19.145 23.75L20 21.0147L20.855 23.75H19.145ZM20 16.25C20.1483 16.25 20.2933 16.294 20.4167 16.3764C20.54 16.4588 20.6361 16.5759 20.6929 16.713C20.7497 16.85 20.7645 17.0008 20.7356 17.1463C20.7066 17.2918 20.6352 17.4254 20.5303 17.5303C20.4254 17.6352 20.2918 17.7066 20.1463 17.7356C20.0008 17.7645 19.85 17.7497 19.713 17.6929C19.5759 17.6361 19.4588 17.54 19.3764 17.4167C19.294 17.2933 19.25 17.1483 19.25 17C19.25 16.8011 19.329 16.6103 19.4697 16.4696C19.6103 16.329 19.8011 16.25 20 16.25ZM17.7395 28.25H17.75H22.25H22.2605L22.73 29.75H17.27L17.7395 28.25Z" fill="white"/>
</g>
<defs>
<clipPath id="clip0_170_10112">
<rect width="24" height="24" fill="white" transform="translate(8 8)"/>
</clipPath>
</defs>
</svg>
