<svg width="28" height="28" viewBox="0 0 28 28" fill="none" xmlns="http://www.w3.org/2000/svg">
<path d="M22.9 6H6.1C4.945 6 4.0105 6.9 4.0105 8L4 20C4 21.1 4.945 22 6.1 22H22.9C24.055 22 25 21.1 25 20V8C25 6.9 24.055 6 22.9 6ZM22.48 10.25L15.0565 14.67C14.7205 14.87 14.2795 14.87 13.9435 14.67L6.52 10.25C6.41471 10.1937 6.32251 10.1177 6.24898 10.0265C6.17545 9.93525 6.12212 9.83078 6.0922 9.71937C6.06229 9.60796 6.05643 9.49194 6.07496 9.37831C6.0935 9.26468 6.13605 9.15581 6.20005 9.0583C6.26404 8.96079 6.34814 8.87666 6.44726 8.811C6.54638 8.74533 6.65846 8.69951 6.77672 8.6763C6.89498 8.65309 7.01695 8.65297 7.13525 8.67595C7.25356 8.69893 7.36574 8.74453 7.465 8.81L14.5 13L21.535 8.81C21.6343 8.74453 21.7464 8.69893 21.8647 8.67595C21.9831 8.65297 22.105 8.65309 22.2233 8.6763C22.3415 8.69951 22.4536 8.74533 22.5527 8.811C22.6519 8.87666 22.736 8.96079 22.8 9.0583C22.8639 9.15581 22.9065 9.26468 22.925 9.37831C22.9436 9.49194 22.9377 9.60796 22.9078 9.71937C22.8779 9.83078 22.8245 9.93525 22.751 10.0265C22.6775 10.1177 22.5853 10.1937 22.48 10.25Z" fill="white"/>
</svg>
