<svg width="70" height="53" viewBox="0 0 70 53" fill="none" xmlns="http://www.w3.org/2000/svg">
<g clip-path="url(#clip0_2001_779)">
<mask id="mask0_2001_779" style="mask-type:luminance" maskUnits="userSpaceOnUse" x="-48" y="-28" width="153" height="109">
<path d="M104.239 -27.1914H-47.9348V80.0548H104.239V-27.1914Z" fill="white"/>
</mask>
<g mask="url(#mask0_2001_779)">
<path fill-rule="evenodd" clip-rule="evenodd" d="M8.29947 28.2426C9.00246 30.3235 7.8879 32.5833 5.80448 33.2863C3.72362 33.9893 1.46381 32.8747 0.760816 30.7913C0.0578225 28.7104 1.17239 26.4506 3.25581 25.7476C5.33667 25.0446 7.59392 26.1592 8.29947 28.2426Z" fill="white"/>
</g>
<mask id="mask1_2001_779" style="mask-type:luminance" maskUnits="userSpaceOnUse" x="-48" y="-28" width="153" height="109">
<path d="M104.239 -27.1914H-47.9348V80.0548H104.239V-27.1914Z" fill="white"/>
</mask>
<g mask="url(#mask1_2001_779)">
<path fill-rule="evenodd" clip-rule="evenodd" d="M18.507 43.3556C19.0106 44.8434 18.213 46.4564 16.7252 46.9574C15.2375 47.461 13.6244 46.6635 13.1234 45.1757C12.6198 43.6879 13.4173 42.0748 14.9051 41.5738C16.3904 41.0702 18.0034 41.8678 18.507 43.3556Z" fill="white"/>
</g>
<mask id="mask2_2001_779" style="mask-type:luminance" maskUnits="userSpaceOnUse" x="-48" y="-28" width="153" height="109">
<path d="M104.239 -27.1914H-47.9348V80.0548H104.239V-27.1914Z" fill="white"/>
</mask>
<g mask="url(#mask2_2001_779)">
<path fill-rule="evenodd" clip-rule="evenodd" d="M11.5615 37.8833C12.1648 39.6676 11.2087 41.6027 9.42441 42.206C7.64009 42.8093 5.70494 41.8533 5.10164 40.0689C4.49835 38.2846 5.45442 36.3495 7.23874 35.7462C9.02307 35.1429 10.9582 36.0989 11.5615 37.8833Z" fill="white"/>
</g>
<mask id="mask3_2001_779" style="mask-type:luminance" maskUnits="userSpaceOnUse" x="-48" y="-28" width="153" height="109">
<path d="M104.239 -27.1914H-47.9348V80.0548H104.239V-27.1914Z" fill="white"/>
</mask>
<g mask="url(#mask3_2001_779)">
<path fill-rule="evenodd" clip-rule="evenodd" d="M36.3196 10.5275C37.3242 13.5006 35.7316 16.7267 32.756 17.7339C29.783 18.7411 26.5569 17.1459 25.5497 14.1703C24.5425 11.1973 26.1376 7.97119 29.1132 6.96399C32.0888 5.9568 35.3149 7.55195 36.3196 10.5275Z" fill="white"/>
</g>
<mask id="mask4_2001_779" style="mask-type:luminance" maskUnits="userSpaceOnUse" x="-48" y="-28" width="153" height="109">
<path d="M104.239 -27.1914H-47.9348V80.0548H104.239V-27.1914Z" fill="white"/>
</mask>
<g mask="url(#mask4_2001_779)">
<path fill-rule="evenodd" clip-rule="evenodd" d="M22.1473 9.04221C23.0522 11.7187 21.6181 14.6227 18.9416 15.5276C16.2651 16.4326 13.3611 14.9985 12.4562 12.322C11.5512 9.64551 12.9853 6.7415 15.6618 5.83656C18.3383 4.92906 21.2423 6.36572 22.1473 9.04221Z" fill="white"/>
</g>
<mask id="mask5_2001_779" style="mask-type:luminance" maskUnits="userSpaceOnUse" x="-48" y="-28" width="153" height="109">
<path d="M104.239 -27.1914H-47.9348V80.0548H104.239V-27.1914Z" fill="white"/>
</mask>
<g mask="url(#mask5_2001_779)">
<path fill-rule="evenodd" clip-rule="evenodd" d="M11.4873 16.6678C12.2925 19.0478 11.0169 21.6271 8.63697 22.4324C6.25702 23.2376 3.67767 21.962 2.87242 19.582C2.06717 17.2021 3.34278 14.6227 5.72274 13.8175C8.10014 13.0122 10.682 14.2879 11.4873 16.6678Z" fill="white"/>
</g>
<mask id="mask6_2001_779" style="mask-type:luminance" maskUnits="userSpaceOnUse" x="-48" y="-28" width="153" height="109">
<path d="M104.239 -27.1914H-47.9348V80.0548H104.239V-27.1914Z" fill="white"/>
</mask>
<g mask="url(#mask6_2001_779)">
<path fill-rule="evenodd" clip-rule="evenodd" d="M26.033 44.2941C26.4343 45.4828 25.7978 46.7737 24.6091 47.1751C23.4204 47.5764 22.1294 46.9399 21.7281 45.7512C21.3267 44.5625 21.9633 43.2715 23.152 42.8702C24.3407 42.4663 25.6316 43.1054 26.033 44.2941Z" fill="white"/>
</g>
<mask id="mask7_2001_779" style="mask-type:luminance" maskUnits="userSpaceOnUse" x="-48" y="-28" width="153" height="109">
<path d="M104.239 -27.1914H-47.9348V80.0548H104.239V-27.1914Z" fill="white"/>
</mask>
<g mask="url(#mask7_2001_779)">
<path d="M22.7506 26.6183C22.6995 26.1876 22.4927 25.8532 22.1299 25.6152C21.7672 25.3771 21.3223 25.2581 20.7952 25.2581C20.4098 25.2581 20.0726 25.3204 19.7835 25.4451C19.4973 25.5698 19.2735 25.7413 19.1119 25.9595C18.9532 26.1777 18.8739 26.4256 18.8739 26.7033C18.8739 26.9357 18.9291 27.1355 19.0397 27.3027C19.153 27.4671 19.2975 27.6045 19.4732 27.715C19.6489 27.8227 19.8331 27.912 20.0258 27.9828C20.2185 28.0508 20.3956 28.1061 20.5572 28.1486L21.4413 28.3866C21.668 28.4461 21.9202 28.5283 22.198 28.6332C22.4785 28.738 22.7463 28.8811 23.0013 29.0625C23.2592 29.241 23.4718 29.4706 23.639 29.7511C23.8062 30.0317 23.8897 30.376 23.8897 30.7841C23.8897 31.2545 23.7665 31.6795 23.5199 32.0593C23.2762 32.439 22.9192 32.7408 22.4488 32.9647C21.9812 33.1886 21.413 33.3005 20.7442 33.3005C20.1208 33.3005 19.5809 33.1999 19.1247 32.9987C18.6713 32.7975 18.3142 32.5169 18.0535 32.157C17.7956 31.7971 17.6497 31.3792 17.6157 30.9031H18.7039C18.7322 31.2318 18.8427 31.5038 19.0354 31.7192C19.2309 31.9318 19.4775 32.0904 19.775 32.1953C20.0754 32.2973 20.3985 32.3483 20.7442 32.3483C21.1466 32.3483 21.5079 32.2831 21.8281 32.1528C22.1484 32.0196 22.402 31.8354 22.589 31.6002C22.7761 31.3622 22.8696 31.0844 22.8696 30.767C22.8696 30.478 22.7888 30.2428 22.6273 30.0614C22.4658 29.8801 22.2532 29.7327 21.9897 29.6194C21.7261 29.506 21.4413 29.4068 21.1353 29.3218L20.0641 29.0157C19.384 28.8202 18.8455 28.5411 18.4488 28.1784C18.0521 27.8156 17.8537 27.341 17.8537 26.7544C17.8537 26.2669 17.9855 25.8419 18.249 25.4791C18.5154 25.1136 18.8725 24.8302 19.3202 24.629C19.7708 24.425 20.2738 24.3229 20.8292 24.3229C21.3903 24.3229 21.8891 24.4235 22.3255 24.6247C22.7619 24.8231 23.1076 25.0952 23.3627 25.4409C23.6205 25.7866 23.7566 26.1791 23.7707 26.6183H22.7506Z" fill="white"/>
</g>
<mask id="mask8_2001_779" style="mask-type:luminance" maskUnits="userSpaceOnUse" x="-48" y="-28" width="153" height="109">
<path d="M104.239 -27.1914H-47.9348V80.0548H104.239V-27.1914Z" fill="white"/>
</mask>
<g mask="url(#mask8_2001_779)">
<path d="M26.8965 30.767L26.8795 29.5258H27.0836L29.9401 26.6183H31.1813L28.1377 29.6959H28.0527L26.8965 30.767ZM25.9614 33.1475V24.442H26.9645V33.1475H25.9614ZM30.1101 33.1475L27.5596 29.9169L28.2738 29.2198L31.3853 33.1475H30.1101Z" fill="white"/>
</g>
<mask id="mask9_2001_779" style="mask-type:luminance" maskUnits="userSpaceOnUse" x="-48" y="-28" width="153" height="109">
<path d="M104.239 -27.1914H-47.9348V80.0548H104.239V-27.1914Z" fill="white"/>
</mask>
<g mask="url(#mask9_2001_779)">
<path d="M33.3868 35.5959C33.2168 35.5959 33.0651 35.5817 32.932 35.5534C32.7988 35.5279 32.7067 35.5024 32.6557 35.4769L32.9107 34.5927C33.1544 34.6551 33.3698 34.6777 33.5568 34.6607C33.7438 34.6437 33.9096 34.5601 34.0541 34.4099C34.2015 34.2626 34.3361 34.0231 34.458 33.6916L34.645 33.1815L32.2306 26.6183H33.3188L35.1211 31.8212H35.1891L36.9914 26.6183H38.0796L35.3081 34.0996C35.1834 34.4369 35.029 34.716 34.8448 34.937C34.6606 35.1609 34.4466 35.3267 34.2029 35.4344C33.962 35.542 33.69 35.5959 33.3868 35.5959Z" fill="white"/>
</g>
<mask id="mask10_2001_779" style="mask-type:luminance" maskUnits="userSpaceOnUse" x="-48" y="-28" width="153" height="109">
<path d="M104.239 -27.1914H-47.9348V80.0548H104.239V-27.1914Z" fill="white"/>
</mask>
<g mask="url(#mask10_2001_779)">
<path d="M39.0959 25.3771V24.442H45.6251V25.3771H42.8876V33.1475H41.8334V25.3771H39.0959Z" fill="white"/>
</g>
<mask id="mask11_2001_779" style="mask-type:luminance" maskUnits="userSpaceOnUse" x="-48" y="-28" width="153" height="109">
<path d="M104.239 -27.1914H-47.9348V80.0548H104.239V-27.1914Z" fill="white"/>
</mask>
<g mask="url(#mask11_2001_779)">
<path d="M49.8986 33.2835C49.2694 33.2835 48.7268 33.1446 48.2705 32.8669C47.8171 32.5864 47.4671 32.1953 47.2206 31.6937C46.9769 31.1893 46.855 30.6027 46.855 29.9339C46.855 29.2651 46.9769 28.6757 47.2206 28.1656C47.4671 27.6527 47.81 27.2531 48.2493 26.9669C48.6913 26.6778 49.2071 26.5333 49.7965 26.5333C50.1366 26.5333 50.4724 26.59 50.804 26.7033C51.1355 26.8167 51.4373 27.0009 51.7094 27.2559C51.9814 27.5082 52.1982 27.8425 52.3597 28.2591C52.5213 28.6757 52.602 29.1886 52.602 29.7979V30.223H47.5691V29.3558H51.5818C51.5818 28.9874 51.5082 28.6587 51.3608 28.3696C51.2163 28.0806 51.0094 27.8525 50.7402 27.6853C50.4738 27.5181 50.1593 27.4345 49.7965 27.4345C49.397 27.4345 49.0512 27.5337 48.7594 27.732C48.4703 27.9276 48.2479 28.1826 48.092 28.4972C47.9361 28.8117 47.8582 29.1489 47.8582 29.5088V30.0869C47.8582 30.58 47.9432 30.998 48.1132 31.3409C48.2861 31.681 48.5256 31.9403 48.8316 32.1188C49.1377 32.2945 49.4933 32.3823 49.8986 32.3823C50.1621 32.3823 50.4001 32.3455 50.6127 32.2718C50.828 32.1953 51.0137 32.0819 51.1695 31.9318C51.3254 31.7787 51.4458 31.5889 51.5308 31.3622L52.5 31.6342C52.398 31.9629 52.2265 32.252 51.9857 32.5013C51.7448 32.7479 51.4472 32.9406 51.093 33.0794C50.7388 33.2155 50.3406 33.2835 49.8986 33.2835Z" fill="white"/>
</g>
<mask id="mask12_2001_779" style="mask-type:luminance" maskUnits="userSpaceOnUse" x="-48" y="-28" width="153" height="109">
<path d="M104.239 -27.1914H-47.9348V80.0548H104.239V-27.1914Z" fill="white"/>
</mask>
<g mask="url(#mask12_2001_779)">
<path d="M55.4938 24.442V33.1475H54.4907V24.442H55.4938Z" fill="white"/>
</g>
<mask id="mask13_2001_779" style="mask-type:luminance" maskUnits="userSpaceOnUse" x="-48" y="-28" width="153" height="109">
<path d="M104.239 -27.1914H-47.9348V80.0548H104.239V-27.1914Z" fill="white"/>
</mask>
<g mask="url(#mask13_2001_779)">
<path fill-rule="evenodd" clip-rule="evenodd" d="M8.29947 28.2426C9.00246 30.3235 7.8879 32.5833 5.80448 33.2863C3.72362 33.9893 1.46381 32.8747 0.760816 30.7913C0.0578225 28.7104 1.17239 26.4506 3.25581 25.7476C5.33667 25.0446 7.59392 26.1592 8.29947 28.2426Z" fill="white"/>
</g>
<mask id="mask14_2001_779" style="mask-type:luminance" maskUnits="userSpaceOnUse" x="-48" y="-28" width="153" height="109">
<path d="M104.239 -27.1914H-47.9348V80.0548H104.239V-27.1914Z" fill="white"/>
</mask>
<g mask="url(#mask14_2001_779)">
<path fill-rule="evenodd" clip-rule="evenodd" d="M18.507 43.3556C19.0106 44.8434 18.213 46.4564 16.7252 46.9574C15.2375 47.461 13.6244 46.6635 13.1234 45.1757C12.6198 43.6879 13.4173 42.0748 14.9051 41.5738C16.3904 41.0702 18.0034 41.8678 18.507 43.3556Z" fill="white"/>
</g>
<mask id="mask15_2001_779" style="mask-type:luminance" maskUnits="userSpaceOnUse" x="-48" y="-28" width="153" height="109">
<path d="M104.239 -27.1914H-47.9348V80.0548H104.239V-27.1914Z" fill="white"/>
</mask>
<g mask="url(#mask15_2001_779)">
<path fill-rule="evenodd" clip-rule="evenodd" d="M11.5615 37.8833C12.1648 39.6676 11.2087 41.6027 9.42441 42.206C7.64009 42.8093 5.70494 41.8533 5.10164 40.0689C4.49835 38.2846 5.45442 36.3495 7.23874 35.7462C9.02307 35.1429 10.9582 36.0989 11.5615 37.8833Z" fill="white"/>
</g>
<mask id="mask16_2001_779" style="mask-type:luminance" maskUnits="userSpaceOnUse" x="-48" y="-28" width="153" height="109">
<path d="M104.239 -27.1914H-47.9348V80.0548H104.239V-27.1914Z" fill="white"/>
</mask>
<g mask="url(#mask16_2001_779)">
<path fill-rule="evenodd" clip-rule="evenodd" d="M36.3196 10.5275C37.3242 13.5006 35.7316 16.7267 32.756 17.7339C29.783 18.7411 26.5569 17.1459 25.5497 14.1703C24.5425 11.1973 26.1376 7.97119 29.1132 6.96399C32.0888 5.9568 35.3149 7.55195 36.3196 10.5275Z" fill="white"/>
</g>
<mask id="mask17_2001_779" style="mask-type:luminance" maskUnits="userSpaceOnUse" x="-48" y="-28" width="153" height="109">
<path d="M104.239 -27.1914H-47.9348V80.0548H104.239V-27.1914Z" fill="white"/>
</mask>
<g mask="url(#mask17_2001_779)">
<path fill-rule="evenodd" clip-rule="evenodd" d="M22.1473 9.04221C23.0522 11.7187 21.6181 14.6227 18.9416 15.5276C16.2651 16.4326 13.3611 14.9985 12.4562 12.322C11.5512 9.64551 12.9853 6.7415 15.6618 5.83656C18.3383 4.92906 21.2423 6.36572 22.1473 9.04221Z" fill="white"/>
</g>
<mask id="mask18_2001_779" style="mask-type:luminance" maskUnits="userSpaceOnUse" x="-48" y="-28" width="153" height="109">
<path d="M104.239 -27.1914H-47.9348V80.0548H104.239V-27.1914Z" fill="white"/>
</mask>
<g mask="url(#mask18_2001_779)">
<path fill-rule="evenodd" clip-rule="evenodd" d="M11.4873 16.6678C12.2925 19.0478 11.0169 21.6271 8.63697 22.4324C6.25702 23.2376 3.67767 21.962 2.87242 19.582C2.06717 17.2021 3.34278 14.6227 5.72274 13.8175C8.10014 13.0122 10.682 14.2879 11.4873 16.6678Z" fill="white"/>
</g>
<mask id="mask19_2001_779" style="mask-type:luminance" maskUnits="userSpaceOnUse" x="-48" y="-28" width="153" height="109">
<path d="M104.239 -27.1914H-47.9348V80.0548H104.239V-27.1914Z" fill="white"/>
</mask>
<g mask="url(#mask19_2001_779)">
<path fill-rule="evenodd" clip-rule="evenodd" d="M26.033 44.2941C26.4343 45.4828 25.7978 46.7737 24.6091 47.1751C23.4204 47.5764 22.1294 46.9399 21.7281 45.7512C21.3267 44.5625 21.9633 43.2715 23.152 42.8702C24.3407 42.4663 25.6316 43.1054 26.033 44.2941Z" fill="white"/>
</g>
</g>
<defs>
<clipPath id="clip0_2001_779">
<rect width="70" height="52.5" fill="white" transform="translate(0 0.200195)"/>
</clipPath>
</defs>
</svg>
