<svg width="92" height="69" viewBox="0 0 92 69" fill="none" xmlns="http://www.w3.org/2000/svg">
<g clip-path="url(#clip0_2001_2620)">
<mask id="mask0_2001_2620" style="mask-type:luminance" maskUnits="userSpaceOnUse" x="-63" y="-36" width="200" height="141">
<path d="M137 -36H-63V104.952H137V-36Z" fill="white"/>
</mask>
<g mask="url(#mask0_2001_2620)">
<path fill-rule="evenodd" clip-rule="evenodd" d="M10.908 36.8566C11.832 39.5914 10.3671 42.5615 7.62889 43.4854C4.89405 44.4093 1.92401 42.9445 1.00008 40.2063C0.0761418 37.4714 1.541 34.5014 4.27921 33.5775C7.01406 32.6535 9.98073 34.1184 10.908 36.8566Z" fill="#4A9CD5"/>
</g>
<mask id="mask1_2001_2620" style="mask-type:luminance" maskUnits="userSpaceOnUse" x="-63" y="-36" width="200" height="141">
<path d="M137 -36H-63V104.952H137V-36Z" fill="white"/>
</mask>
<g mask="url(#mask1_2001_2620)">
<path fill-rule="evenodd" clip-rule="evenodd" d="M24.3236 56.7198C24.9855 58.6752 23.9372 60.7952 21.9819 61.4537C20.0265 62.1156 17.9065 61.0674 17.2479 59.112C16.5861 57.1566 17.6343 55.0366 19.5897 54.3781C21.5417 53.7162 23.6617 54.7644 24.3236 56.7198Z" fill="#99DBF8"/>
</g>
<mask id="mask2_2001_2620" style="mask-type:luminance" maskUnits="userSpaceOnUse" x="-63" y="-36" width="200" height="141">
<path d="M137 -36H-63V104.952H137V-36Z" fill="white"/>
</mask>
<g mask="url(#mask2_2001_2620)">
<path fill-rule="evenodd" clip-rule="evenodd" d="M15.1952 49.5258C15.9881 51.8709 14.7315 54.4143 12.3864 55.2072C10.0413 56.0001 7.49798 54.7435 6.70508 52.3984C5.91217 50.0533 7.16873 47.5099 9.51384 46.717C11.859 45.9241 14.4023 47.1807 15.1952 49.5258Z" fill="#50C0EF"/>
</g>
<mask id="mask3_2001_2620" style="mask-type:luminance" maskUnits="userSpaceOnUse" x="-63" y="-36" width="200" height="141">
<path d="M137 -36H-63V104.952H137V-36Z" fill="white"/>
</mask>
<g mask="url(#mask3_2001_2620)">
<path fill-rule="evenodd" clip-rule="evenodd" d="M47.7343 13.5734C49.0547 17.4808 46.9616 21.7209 43.0508 23.0446C39.1434 24.3684 34.9034 22.2719 33.5796 18.3611C32.2559 14.4537 34.3524 10.2137 38.2631 8.88993C42.1739 7.56618 46.4139 9.66267 47.7343 13.5734Z" fill="#247DC0"/>
</g>
<mask id="mask4_2001_2620" style="mask-type:luminance" maskUnits="userSpaceOnUse" x="-63" y="-36" width="200" height="141">
<path d="M137 -36H-63V104.952H137V-36Z" fill="white"/>
</mask>
<g mask="url(#mask4_2001_2620)">
<path fill-rule="evenodd" clip-rule="evenodd" d="M29.1078 11.6215C30.2972 15.1392 28.4124 18.9559 24.8947 20.1453C21.377 21.3346 17.5603 19.4498 16.371 15.9321C15.1816 12.4145 17.0664 8.59776 20.5841 7.40841C24.1018 6.21569 27.9185 8.10387 29.1078 11.6215Z" fill="#317EC0"/>
</g>
<mask id="mask5_2001_2620" style="mask-type:luminance" maskUnits="userSpaceOnUse" x="-63" y="-36" width="200" height="141">
<path d="M137 -36H-63V104.952H137V-36Z" fill="white"/>
</mask>
<g mask="url(#mask5_2001_2620)">
<path fill-rule="evenodd" clip-rule="evenodd" d="M15.0976 21.6434C16.1559 24.7713 14.4794 28.1613 11.3514 29.2196C8.22349 30.278 4.83349 28.6014 3.77516 25.4735C2.71684 22.3456 4.39336 18.9556 7.5213 17.8972C10.6459 16.8389 14.0392 18.5154 15.0976 21.6434Z" fill="#3B8AC8"/>
</g>
<mask id="mask6_2001_2620" style="mask-type:luminance" maskUnits="userSpaceOnUse" x="-63" y="-36" width="200" height="141">
<path d="M137 -36H-63V104.952H137V-36Z" fill="white"/>
</mask>
<g mask="url(#mask6_2001_2620)">
<path fill-rule="evenodd" clip-rule="evenodd" d="M34.2147 57.9525C34.7422 59.5148 33.9056 61.2115 32.3433 61.739C30.781 62.2664 29.0844 61.4299 28.5569 59.8676C28.0294 58.3053 28.866 56.6086 30.4283 56.0811C31.9905 55.5503 33.6872 56.3902 34.2147 57.9525Z" fill="#C4E9FB"/>
</g>
<mask id="mask7_2001_2620" style="mask-type:luminance" maskUnits="userSpaceOnUse" x="-63" y="-36" width="200" height="141">
<path d="M137 -36H-63V104.952H137V-36Z" fill="white"/>
</mask>
<g mask="url(#mask7_2001_2620)">
<path d="M29.9006 35.2646C29.8336 34.6984 29.5617 34.259 29.085 33.9461C28.6083 33.6333 28.0235 33.4768 27.3308 33.4768C26.8242 33.4768 26.381 33.5588 26.0011 33.7226C25.625 33.8865 25.3307 34.1118 25.1184 34.3986C24.9099 34.6854 24.8056 35.0113 24.8056 35.3763C24.8056 35.6817 24.8782 35.9443 25.0235 36.164C25.1724 36.38 25.3624 36.5607 25.5933 36.7059C25.8242 36.8475 26.0663 36.9648 26.3196 37.0579C26.5728 37.1473 26.8056 37.2199 27.0179 37.2758L28.1799 37.5886C28.4779 37.6668 28.8094 37.7748 29.1744 37.9126C29.5431 38.0505 29.895 38.2385 30.2302 38.4769C30.5692 38.7115 30.8485 39.0132 31.0683 39.3819C31.288 39.7507 31.3979 40.2032 31.3979 40.7395C31.3979 41.3578 31.2359 41.9164 30.9118 42.4155C30.5915 42.9146 30.1222 43.3112 29.504 43.6055C28.8894 43.8997 28.1427 44.0468 27.2637 44.0468C26.4443 44.0468 25.7348 43.9146 25.1352 43.6502C24.5393 43.3857 24.07 43.017 23.7274 42.544C23.3884 42.071 23.1966 41.5216 23.1519 40.8959H24.5821C24.6194 41.328 24.7646 41.6855 25.0179 41.9686C25.2749 42.2479 25.5989 42.4565 25.99 42.5943C26.3848 42.7284 26.8093 42.7954 27.2637 42.7954C27.7926 42.7954 28.2675 42.7097 28.6883 42.5384C29.1092 42.3634 29.4425 42.1213 29.6883 41.8122C29.9342 41.4993 30.0571 41.1343 30.0571 40.7172C30.0571 40.3373 29.9509 40.0281 29.7386 39.7898C29.5263 39.5514 29.247 39.3577 28.9006 39.2088C28.5542 39.0598 28.1799 38.9294 27.7777 38.8177L26.3699 38.4154C25.476 38.1585 24.7683 37.7916 24.2469 37.3149C23.7255 36.8381 23.4648 36.2143 23.4648 35.4433C23.4648 34.8027 23.638 34.2441 23.9843 33.7673C24.3344 33.2869 24.8037 32.9144 25.3922 32.65C25.9844 32.3818 26.6455 32.2478 27.3755 32.2478C28.1129 32.2478 28.7684 32.38 29.342 32.6444C29.9155 32.9051 30.3699 33.2627 30.7051 33.7171C31.044 34.1714 31.2228 34.6873 31.2414 35.2646H29.9006Z" fill="#247DC0"/>
</g>
<mask id="mask8_2001_2620" style="mask-type:luminance" maskUnits="userSpaceOnUse" x="-63" y="-36" width="200" height="141">
<path d="M137 -36H-63V104.952H137V-36Z" fill="white"/>
</mask>
<g mask="url(#mask8_2001_2620)">
<path d="M35.3499 40.7172L35.3275 39.0859H35.5957L39.3499 35.2646H40.9812L36.9812 39.3093H36.8694L35.3499 40.7172ZM34.1208 43.8457V32.4042H35.4392V43.8457H34.1208ZM39.5734 43.8457L36.2214 39.5998L37.1599 38.6836L41.2494 43.8457H39.5734Z" fill="#247DC0"/>
</g>
<mask id="mask9_2001_2620" style="mask-type:luminance" maskUnits="userSpaceOnUse" x="-63" y="-36" width="200" height="141">
<path d="M137 -36H-63V104.952H137V-36Z" fill="white"/>
</mask>
<g mask="url(#mask9_2001_2620)">
<path d="M43.8799 47.0636C43.6564 47.0636 43.4571 47.045 43.2821 47.0078C43.107 46.9742 42.986 46.9407 42.919 46.9072L43.2542 45.7452C43.5745 45.8271 43.8575 45.8569 44.1033 45.8346C44.3492 45.8122 44.567 45.7023 44.757 45.5049C44.9507 45.3113 45.1276 44.9966 45.2877 44.5608L45.5335 43.8904L42.3603 35.2646H43.7905L46.1592 42.1027H46.2486L48.6174 35.2646H50.0476L46.4051 45.0971C46.2412 45.5403 46.0382 45.9072 45.7961 46.1977C45.554 46.4919 45.2728 46.7098 44.9525 46.8513C44.6359 46.9929 44.2784 47.0636 43.8799 47.0636Z" fill="#247DC0"/>
</g>
<mask id="mask10_2001_2620" style="mask-type:luminance" maskUnits="userSpaceOnUse" x="-63" y="-36" width="200" height="141">
<path d="M137 -36H-63V104.952H137V-36Z" fill="white"/>
</mask>
<g mask="url(#mask10_2001_2620)">
<path d="M51.3833 33.6333V32.4042H59.9645V33.6333H56.3666V43.8457H54.9811V33.6333H51.3833Z" fill="#247DC0"/>
</g>
<mask id="mask11_2001_2620" style="mask-type:luminance" maskUnits="userSpaceOnUse" x="-63" y="-36" width="200" height="141">
<path d="M137 -36H-63V104.952H137V-36Z" fill="white"/>
</mask>
<g mask="url(#mask11_2001_2620)">
<path d="M65.5809 44.0245C64.7541 44.0245 64.0409 43.842 63.4412 43.477C62.8453 43.1083 62.3853 42.5943 62.0613 41.9351C61.741 41.2721 61.5808 40.5011 61.5808 39.6222C61.5808 38.7432 61.741 37.9685 62.0613 37.2981C62.3853 36.624 62.836 36.0988 63.4133 35.7227C63.9943 35.3428 64.6721 35.1528 65.4468 35.1528C65.8938 35.1528 66.3351 35.2273 66.7709 35.3763C67.2066 35.5253 67.6033 35.7674 67.9608 36.1026C68.3184 36.434 68.6033 36.8735 68.8156 37.421C69.0279 37.9685 69.134 38.6426 69.134 39.4434V40.0021H62.5194V38.8624H67.7932C67.7932 38.3782 67.6964 37.9462 67.5027 37.5663C67.3128 37.1864 67.0409 36.8866 66.6871 36.6668C66.337 36.4471 65.9236 36.3372 65.4468 36.3372C64.9217 36.3372 64.4673 36.4676 64.0837 36.7283C63.7038 36.9853 63.4114 37.3205 63.2066 37.7339C63.0017 38.1473 62.8993 38.5905 62.8993 39.0635V39.8233C62.8993 40.4713 63.011 41.0207 63.2345 41.4714C63.4617 41.9183 63.7764 42.2591 64.1787 42.4937C64.5809 42.7246 65.0483 42.8401 65.5809 42.8401C65.9273 42.8401 66.2401 42.7917 66.5195 42.6948C66.8025 42.5943 67.0465 42.4453 67.2513 42.2479C67.4562 42.0468 67.6145 41.7973 67.7262 41.4993L69 41.8568C68.8659 42.2889 68.6406 42.6688 68.324 42.9965C68.0074 43.3206 67.6163 43.5738 67.1508 43.7563C66.6852 43.9351 66.1619 44.0245 65.5809 44.0245Z" fill="#247DC0"/>
</g>
<mask id="mask12_2001_2620" style="mask-type:luminance" maskUnits="userSpaceOnUse" x="-63" y="-36" width="200" height="141">
<path d="M137 -36H-63V104.952H137V-36Z" fill="white"/>
</mask>
<g mask="url(#mask12_2001_2620)">
<path d="M72.9348 32.4042V43.8457H71.6164V32.4042H72.9348Z" fill="#247DC0"/>
</g>
<mask id="mask13_2001_2620" style="mask-type:luminance" maskUnits="userSpaceOnUse" x="-63" y="-36" width="200" height="141">
<path d="M137 -36H-63V104.952H137V-36Z" fill="white"/>
</mask>
<g mask="url(#mask13_2001_2620)">
<path fill-rule="evenodd" clip-rule="evenodd" d="M10.908 36.8566C11.832 39.5914 10.3671 42.5615 7.62889 43.4854C4.89405 44.4093 1.92401 42.9445 1.00008 40.2063C0.0761418 37.4714 1.541 34.5014 4.27921 33.5775C7.01406 32.6535 9.98073 34.1184 10.908 36.8566Z" fill="#4A9CD5"/>
</g>
<mask id="mask14_2001_2620" style="mask-type:luminance" maskUnits="userSpaceOnUse" x="-63" y="-36" width="200" height="141">
<path d="M137 -36H-63V104.952H137V-36Z" fill="white"/>
</mask>
<g mask="url(#mask14_2001_2620)">
<path fill-rule="evenodd" clip-rule="evenodd" d="M24.3236 56.7198C24.9855 58.6752 23.9372 60.7952 21.9819 61.4537C20.0265 62.1156 17.9065 61.0674 17.2479 59.112C16.5861 57.1566 17.6343 55.0366 19.5897 54.3781C21.5417 53.7162 23.6617 54.7644 24.3236 56.7198Z" fill="#99DBF8"/>
</g>
<mask id="mask15_2001_2620" style="mask-type:luminance" maskUnits="userSpaceOnUse" x="-63" y="-36" width="200" height="141">
<path d="M137 -36H-63V104.952H137V-36Z" fill="white"/>
</mask>
<g mask="url(#mask15_2001_2620)">
<path fill-rule="evenodd" clip-rule="evenodd" d="M15.1952 49.5258C15.9881 51.8709 14.7315 54.4143 12.3864 55.2072C10.0413 56.0001 7.49798 54.7435 6.70508 52.3984C5.91217 50.0533 7.16873 47.5099 9.51384 46.717C11.859 45.9241 14.4023 47.1807 15.1952 49.5258Z" fill="#50C0EF"/>
</g>
<mask id="mask16_2001_2620" style="mask-type:luminance" maskUnits="userSpaceOnUse" x="-63" y="-36" width="200" height="141">
<path d="M137 -36H-63V104.952H137V-36Z" fill="white"/>
</mask>
<g mask="url(#mask16_2001_2620)">
<path fill-rule="evenodd" clip-rule="evenodd" d="M47.7343 13.5734C49.0547 17.4808 46.9616 21.7209 43.0508 23.0446C39.1434 24.3684 34.9034 22.2719 33.5796 18.3611C32.2559 14.4537 34.3524 10.2137 38.2631 8.88993C42.1739 7.56618 46.4139 9.66267 47.7343 13.5734Z" fill="#247DC0"/>
</g>
<mask id="mask17_2001_2620" style="mask-type:luminance" maskUnits="userSpaceOnUse" x="-63" y="-36" width="200" height="141">
<path d="M137 -36H-63V104.952H137V-36Z" fill="white"/>
</mask>
<g mask="url(#mask17_2001_2620)">
<path fill-rule="evenodd" clip-rule="evenodd" d="M29.1078 11.6215C30.2972 15.1392 28.4124 18.9559 24.8947 20.1453C21.377 21.3346 17.5603 19.4498 16.371 15.9321C15.1816 12.4145 17.0664 8.59776 20.5841 7.40841C24.1018 6.21569 27.9185 8.10387 29.1078 11.6215Z" fill="#317EC0"/>
</g>
<mask id="mask18_2001_2620" style="mask-type:luminance" maskUnits="userSpaceOnUse" x="-63" y="-36" width="200" height="141">
<path d="M137 -36H-63V104.952H137V-36Z" fill="white"/>
</mask>
<g mask="url(#mask18_2001_2620)">
<path fill-rule="evenodd" clip-rule="evenodd" d="M15.0976 21.6434C16.1559 24.7713 14.4794 28.1613 11.3514 29.2196C8.22349 30.278 4.83349 28.6014 3.77516 25.4735C2.71684 22.3456 4.39336 18.9556 7.5213 17.8972C10.6459 16.8389 14.0392 18.5154 15.0976 21.6434Z" fill="#3B8AC8"/>
</g>
<mask id="mask19_2001_2620" style="mask-type:luminance" maskUnits="userSpaceOnUse" x="-63" y="-36" width="200" height="141">
<path d="M137 -36H-63V104.952H137V-36Z" fill="white"/>
</mask>
<g mask="url(#mask19_2001_2620)">
<path fill-rule="evenodd" clip-rule="evenodd" d="M34.2147 57.9525C34.7422 59.5148 33.9056 61.2115 32.3433 61.739C30.781 62.2664 29.0844 61.4299 28.5569 59.8676C28.0294 58.3053 28.866 56.6086 30.4283 56.0811C31.9905 55.5503 33.6872 56.3902 34.2147 57.9525Z" fill="#C4E9FB"/>
</g>
</g>
<defs>
<clipPath id="clip0_2001_2620">
<rect width="92" height="69" fill="white"/>
</clipPath>
</defs>
</svg>
