<svg width="20" height="20" viewBox="0 0 20 20" fill="none" xmlns="http://www.w3.org/2000/svg">
<path d="M10.0002 12.1002L2.6502 19.4502C2.3752 19.7252 2.0252 19.8627 1.6002 19.8627C1.1752 19.8627 0.825195 19.7252 0.550195 19.4502C0.275195 19.1752 0.137695 18.8252 0.137695 18.4002C0.137695 17.9752 0.275195 17.6252 0.550195 17.3502L7.9002 10.0002L0.550195 2.6502C0.275195 2.3752 0.137695 2.0252 0.137695 1.6002C0.137695 1.1752 0.275195 0.825195 0.550195 0.550195C0.825195 0.275195 1.1752 0.137695 1.6002 0.137695C2.0252 0.137695 2.3752 0.275195 2.6502 0.550195L10.0002 7.9002L17.3502 0.550195C17.6252 0.275195 17.9752 0.137695 18.4002 0.137695C18.8252 0.137695 19.1752 0.275195 19.4502 0.550195C19.7252 0.825195 19.8627 1.1752 19.8627 1.6002C19.8627 2.0252 19.7252 2.3752 19.4502 2.6502L12.1002 10.0002L19.4502 17.3502C19.7252 17.6252 19.8627 17.9752 19.8627 18.4002C19.8627 18.8252 19.7252 19.1752 19.4502 19.4502C19.1752 19.7252 18.8252 19.8627 18.4002 19.8627C17.9752 19.8627 17.6252 19.7252 17.3502 19.4502L10.0002 12.1002Z" fill="white"/>
</svg>
