<svg width="48" height="48" viewBox="0 0 48 48" fill="none" xmlns="http://www.w3.org/2000/svg">
<path d="M40.9675 10.343C36.4321 5.80805 30.4064 3.31055 24.0002 3.31055C17.5939 3.31055 11.5682 5.80805 7.03281 10.3431C6.48353 10.8924 6.48418 11.7831 7.03281 12.3318L11.2922 16.5915C11.8415 17.1408 12.7324 17.1403 13.2812 16.5915C16.1458 13.7261 19.9526 12.148 24.0002 12.148C28.0477 12.148 31.8545 13.7261 34.7192 16.5914C34.983 16.8551 35.3407 17.0034 35.7136 17.0034C36.3213 17.0034 36.6788 16.6208 36.7081 16.5915L40.9675 12.3317C41.5168 11.7825 41.5162 10.8917 40.9675 10.343Z" fill="#FFE600"/>
<path d="M40.9673 10.343C36.432 5.80805 30.4062 3.31055 24 3.31055V12.1481C28.0476 12.1481 31.8544 13.7262 34.7191 16.5915C34.9828 16.8552 35.3406 17.0035 35.7135 17.0035C36.3212 17.0035 36.6787 16.6209 36.7079 16.5915L40.9673 12.3318C41.5166 11.7825 41.5161 10.8917 40.9673 10.343Z" fill="#FFAA32"/>
<path d="M13.2808 38.0291C12.0709 36.8193 8.85862 33.2415 8.83753 27.3072C8.83828 23.2612 10.4162 19.4556 13.2808 16.5913L7.03266 10.3428C2.49759 14.8775 0 20.9033 0 27.3102C0 33.7171 2.49759 39.743 7.03266 44.2776C7.30725 44.5522 7.66706 44.6895 8.02697 44.6895C8.38688 44.6895 8.74678 44.5522 9.02137 44.2776L13.2808 40.0178C13.83 39.4686 13.83 38.5783 13.2808 38.0291Z" fill="#9BFF00"/>
<path d="M34.7195 38.0291C35.9294 36.8193 39.1417 33.2415 39.1628 27.3072C39.162 23.2612 37.5841 19.4556 34.7195 16.5913L40.9677 10.3428C45.5027 14.8775 48.0003 20.9033 48.0003 27.3102C48.0003 33.7171 45.5027 39.743 40.9677 44.2776C40.6931 44.5522 40.3333 44.6895 39.9734 44.6895C39.6134 44.6895 39.2535 44.5522 38.9789 44.2776L34.7195 40.0178C34.1703 39.4686 34.1703 38.5783 34.7195 38.0291Z" fill="#FF1E5A"/>
<path d="M8.83753 27.3072C8.83828 23.2612 10.4162 19.4556 13.2808 16.5913L7.03266 10.3428C2.49759 14.8775 0 20.9033 0 27.3102L8.83753 27.3072Z" fill="#00D200"/>
<path d="M34.7195 38.0295C35.9294 36.8197 39.1417 33.2419 39.1628 27.3076L48.0003 27.3106C48.0003 33.7175 45.5027 39.7434 40.9677 44.2781C40.6931 44.5526 40.3333 44.6899 39.9734 44.6899C39.6134 44.6899 39.2535 44.5526 38.9789 44.278L34.7195 40.0182C34.1703 39.4691 34.1703 38.5787 34.7195 38.0295Z" fill="#C40050"/>
<path d="M20.8751 24.1857C19.1523 25.9085 19.1523 28.7118 20.8751 30.4348C23.0516 32.6113 33.748 39.441 34.9606 40.2125C35.5166 40.5664 36.2439 40.4866 36.71 40.0205C37.176 39.5545 37.2559 38.8273 36.902 38.2712C36.1304 37.0587 29.3007 26.3622 27.1242 24.1857C25.4014 22.4628 22.5981 22.4628 20.8751 24.1857Z" fill="#003C50"/>
<path d="M20.876 24.1857L36.7107 40.0205C37.1768 39.5544 37.2566 38.8272 36.9027 38.2711C36.1312 37.0586 29.3015 26.3621 27.125 24.1856C25.4022 22.4629 22.5989 22.4629 20.876 24.1857Z" fill="#001428"/>
</svg>
