<svg width="48" height="48" viewBox="0 0 48 48" fill="none" xmlns="http://www.w3.org/2000/svg">
<g clip-path="url(#clip0_2024_4043)">
<path d="M35.2598 2.70007L34.8943 1.57507L34.2754 1.32166C31.9694 0.450073 29.4381 0 26.9069 0C24.3756 0 21.8444 0.450073 19.538 1.32166L18.9191 1.57507L18.5536 2.70007C18.357 3.29077 18.5536 3.9375 19.0601 4.27478L26.0913 9.36548C26.3162 9.5625 26.6256 9.64673 26.9069 9.64673C27.1881 9.64673 27.4976 9.5625 27.7224 9.36548L34.7537 4.27478C35.2598 3.9375 35.4568 3.29041 35.2598 2.70007Z" fill="#485C8C"/>
<path d="M8.94402 23.019C8.69683 23.1978 8.40826 23.2871 8.11858 23.2871C7.83001 23.2871 7.54327 23.1989 7.29717 23.022L5.82391 21.9625C5.64996 16.3353 7.46819 11.208 11.1025 7.11523H12.4787C13.0884 7.11523 13.6293 7.50781 13.8165 8.08899L16.4872 16.3573C16.6755 16.937 16.4682 17.5713 15.9749 17.9283L8.94402 23.019Z" fill="#485C8C"/>
<path d="M21.0006 30.1777C20.8036 29.587 20.2693 29.1934 19.6504 29.1934H10.9598C10.3413 29.1934 9.80664 29.587 9.60999 30.1495C9.15991 31.528 8.96289 32.1747 8.96289 32.1747C8.96289 32.2029 8.99109 32.2311 8.99109 32.2311C9.15991 32.4841 9.30054 32.709 9.46936 32.9342L9.55359 33.0184C12.1694 36.8999 16.0505 39.7966 20.4941 41.1747C20.7476 41.2593 20.9724 41.3435 21.2255 41.3999L21.3943 41.2593L23.1378 40.0215C23.6443 39.656 23.8409 39.0093 23.6725 38.4468L21.0006 30.1777Z" fill="#485C8C"/>
<path d="M44.6536 31.528L44.2035 30.1495C44.0065 29.587 43.4722 29.1934 42.8533 29.1934H34.1627C33.5721 29.1934 33.0659 29.5592 32.8411 30.0935C32.8411 30.1213 32.7565 30.3748 32.7287 30.403L30.141 38.4468C29.9726 39.0093 30.1692 39.656 30.6757 40.0215L32.4192 41.2593L32.588 41.3999C32.8411 41.3435 33.0659 41.2593 33.3194 41.1747C37.8754 39.7684 41.8129 36.7871 44.4848 32.7654L44.8327 32.2L44.6536 31.528Z" fill="#2D344A"/>
<path d="M46.5147 23.022C46.2689 23.1992 45.9818 23.2871 45.6933 23.2871C45.4036 23.2871 45.1154 23.1978 44.8682 23.019L37.8369 17.9283C37.3436 17.5713 37.1364 16.937 37.3246 16.3573L39.9957 8.08862C40.1825 7.50781 40.7234 7.11523 41.3331 7.11523H42.7097C46.1528 10.9927 47.9993 15.8431 47.9993 21.0939V21.9545L46.5147 23.022Z" fill="#2D344A"/>
<path d="M1.40625 48C1.04626 48 0.686646 47.8627 0.411987 47.588C-0.137329 47.0387 -0.137329 46.1488 0.411987 45.5995L7.44324 38.5682C7.99255 38.0189 8.88245 38.0189 9.43176 38.5682C9.98108 39.1176 9.98108 40.0074 9.43176 40.5568L2.40051 47.588C2.12585 47.8627 1.76587 48 1.40625 48Z" fill="#7ED8F6"/>
<path d="M9.84375 48C9.48376 48 9.12415 47.8627 8.84949 47.588C8.30017 47.0387 8.30017 46.1488 8.84949 45.5995L11.662 42.787C12.2113 42.2377 13.1012 42.2377 13.6505 42.787C14.1998 43.3363 14.1998 44.2262 13.6505 44.7755L10.838 47.588C10.5634 47.8627 10.2034 48 9.84375 48Z" fill="#7ED8F6"/>
<path d="M1.40625 39.5625C1.04626 39.5625 0.686646 39.4252 0.411987 39.1505C-0.137329 38.6012 -0.137329 37.7113 0.411987 37.162L3.22449 34.3495C3.7738 33.8002 4.6637 33.8002 5.21301 34.3495C5.76233 34.8988 5.76233 35.7887 5.21301 36.338L2.40051 39.1505C2.12585 39.4252 1.76587 39.5625 1.40625 39.5625Z" fill="#7ED8F6"/>
<path d="M47.9438 21.9095C47.8032 25.594 46.7346 29.1096 44.7937 32.2034L35.1752 32.0063L32.5879 41.4C30.7876 41.9347 28.8752 42.1877 26.9065 42.1877C24.9659 42.1877 23.1096 41.9347 21.3379 41.4282C21.3657 41.3158 21.3939 41.2594 21.3939 41.2594L18.6378 32.0063L8.99072 32.2316C8.99072 32.2316 8.96252 32.2034 8.96252 32.1752C7.05017 29.1096 6.0094 25.594 5.86914 21.9377L13.4907 16.2563L11.1283 7.17212C13.2377 4.7533 15.9377 2.81274 18.9469 1.60352L26.9065 6.49719L34.8375 1.60352C37.8752 2.84094 40.575 4.7533 42.7125 7.17212L40.3223 16.2563L47.9438 21.9095Z" fill="#ECECF1"/>
<path d="M27.7218 9.36548C27.4969 9.5625 27.1875 9.64673 26.9062 9.64673V0C29.4375 0 31.9688 0.450073 34.2748 1.32166L34.8937 1.57507L35.2592 2.70007C35.4562 3.29077 35.2592 3.9375 34.7531 4.27478L27.7218 9.36548Z" fill="#2D344A"/>
<path d="M47.9436 21.9095C47.803 25.594 46.7344 29.1096 44.7935 32.2034L35.1749 32.0063L32.5876 41.4C30.7874 41.9347 28.875 42.1877 26.9062 42.1877V6.49719L34.8373 1.60352C37.875 2.84094 40.5747 4.7533 42.7123 7.17212L40.322 16.2563L47.9436 21.9095Z" fill="#D1D6F2"/>
<path d="M34.7529 17.2411L27.7217 12.1226C27.4686 11.9537 27.1874 11.8691 26.9061 11.8691C26.6249 11.8691 26.3436 11.9537 26.0906 12.1226L19.0593 17.2411C18.5528 17.6069 18.3562 18.2255 18.525 18.8162L21.2247 27.0848C21.4217 27.6473 21.956 27.9381 22.5749 27.9381H31.2373C31.8562 27.9381 32.3905 27.6473 32.5875 27.0848L35.2872 18.8162C35.456 18.2255 35.259 17.6069 34.7529 17.2411Z" fill="#485C8C"/>
<path d="M35.2874 18.8162L32.5873 27.0848C32.3906 27.6473 31.8563 27.9381 31.2374 27.9381H26.9062V11.8691C27.1875 11.8691 27.4688 11.9537 27.7218 12.1226L34.7531 17.2411C35.2592 17.6069 35.4562 18.2255 35.2874 18.8162Z" fill="#2D344A"/>
<path d="M23.3962 25.5102C22.7715 25.0488 21.8896 25.1821 21.4297 25.8068L15.8076 33.431L17.3252 36.112L23.6929 27.4768C24.1543 26.852 24.021 25.9716 23.3962 25.5102Z" fill="#485C8C"/>
<path d="M32.4151 25.8526C31.9797 25.2099 31.1048 25.0411 30.4625 25.4791C29.8198 25.9156 29.6521 26.789 30.089 27.4317L36.635 37.0708L37.879 33.8976L32.4151 25.8526Z" fill="#2D344A"/>
<path d="M44.4751 13.3389L33.4887 17.0438C32.7523 17.291 32.3572 18.089 32.6054 18.8251C32.8032 19.4128 33.3499 19.7823 33.9377 19.7823C34.086 19.7823 34.2384 19.7589 34.3867 19.708L44.7552 16.2118L44.4751 13.3389Z" fill="#2D344A"/>
<path d="M28.3125 2.61523V13.2745C28.3125 14.0341 27.6936 14.6808 26.9062 14.6808C26.1185 14.6808 25.5 14.0341 25.5 13.2745V2.61523C25.5 1.85608 26.1185 1.20898 26.9062 1.20898C27.6936 1.20898 28.3125 1.85608 28.3125 2.61523Z" fill="#485C8C"/>
<path d="M28.3125 2.61523V13.2745C28.3125 14.0341 27.6936 14.6808 26.9062 14.6808V1.20898C27.6936 1.20898 28.3125 1.85608 28.3125 2.61523Z" fill="#2D344A"/>
<path d="M20.324 17.0436L10.89 13.8623L9.47754 16.3533L19.426 19.7078C19.5743 19.7587 19.7267 19.7821 19.875 19.7821C20.4613 19.7821 21.0092 19.4126 21.2069 18.8248C21.4556 18.0887 21.0601 17.2908 20.324 17.0436Z" fill="#485C8C"/>
</g>
<defs>
<clipPath id="clip0_2024_4043">
<rect width="48" height="48" fill="white"/>
</clipPath>
</defs>
</svg>
