<svg width="48" height="48" viewBox="0 0 48 48" fill="none" xmlns="http://www.w3.org/2000/svg">
<g clip-path="url(#clip0_2024_3559)">
<path d="M1.4062 25.8897C1.76611 25.8897 2.12602 25.7524 2.40052 25.4778L20.9039 6.97127C21.453 6.42199 21.453 5.53146 20.9039 4.98227C20.3548 4.43299 19.4643 4.43299 18.9151 4.98227L0.411891 23.4887C-0.137297 24.038 -0.137297 24.9285 0.411891 25.4777C0.686484 25.7524 1.0463 25.8897 1.4062 25.8897Z" fill="#FFD844"/>
<path d="M43.0094 27.0916C42.4603 26.5424 41.5699 26.5424 41.0207 27.0916L22.5174 45.5981C21.9682 46.1474 21.9682 47.0379 22.5174 47.5871C22.792 47.8618 23.1519 47.999 23.5117 47.999C23.8715 47.999 24.2315 47.8617 24.506 47.5871L43.0093 29.0806C43.5587 28.5315 43.5587 27.6409 43.0094 27.0916Z" fill="#FFBF00"/>
<path d="M20.9041 27.0914C21.4536 27.641 21.453 28.5315 20.9041 29.0805L2.45518 47.5324C2.18077 47.8069 1.82077 47.9442 1.46077 47.9448C1.10077 47.9442 0.740867 47.8069 0.466367 47.5324C-0.0825391 46.9834 -0.0825391 46.0923 0.466367 45.5433L18.9152 27.0914C19.4641 26.5425 20.3551 26.5425 20.9041 27.0914Z" fill="#FFD844"/>
<path d="M14.8785 20.1287L9.41189 25.5961C8.8627 26.1453 8.8627 27.0359 9.41189 27.5851C9.68648 27.8598 10.0464 27.9971 10.4062 27.9971C10.766 27.9971 11.126 27.8597 11.4005 27.5851L16.8671 22.1177C17.4163 21.5685 17.4163 20.6779 16.8671 20.1287C16.3182 19.5795 15.4277 19.5794 14.8785 20.1287Z" fill="#FFD844"/>
<path d="M6.47294 28.5359L4.47634 30.5328C3.92716 31.0821 3.92716 31.9726 4.47634 32.5219C4.75094 32.7966 5.11084 32.9338 5.47066 32.9338C5.83047 32.9338 6.19047 32.7965 6.46497 32.5219L8.46156 30.525C9.01075 29.9757 9.01075 29.0852 8.46156 28.5359C7.91256 27.9866 7.02213 27.9868 6.47294 28.5359Z" fill="#FFD844"/>
<path d="M24.4698 35.7847C24.8297 35.7847 25.1896 35.6473 25.4641 35.3728L27.7509 33.0855C28.3001 32.5363 28.3001 31.6457 27.7509 31.0965C27.2018 30.5472 26.3114 30.5472 25.7622 31.0965L23.4754 33.3838C22.9262 33.933 22.9262 34.8236 23.4754 35.3728C23.7501 35.6474 24.11 35.7847 24.4698 35.7847Z" fill="#FFBF00"/>
<path d="M22.5999 36.2479C22.0508 35.6986 21.1603 35.6986 20.6111 36.2479L13.2527 43.6076C12.7035 44.1569 12.7035 45.0475 13.2527 45.5966C13.5273 45.8713 13.8872 46.0086 14.247 46.0086C14.6069 46.0086 14.9668 45.8712 15.2413 45.5966L22.5998 38.2369C23.1491 37.6877 23.1491 36.7972 22.5999 36.2479Z" fill="#FFBF00"/>
<path d="M0.46582 47.5329L20.9034 27.0918C21.453 27.6415 21.4523 28.5319 20.9034 29.0809L2.45463 47.5329C2.18023 47.8074 1.82023 47.9446 1.46023 47.9453C1.10023 47.9446 0.74032 47.8074 0.46582 47.5329Z" fill="#FFBF00"/>
<path d="M43.0095 4.98287C46.228 8.20187 47.9999 12.4803 47.9999 17.0327C47.9999 21.5837 46.228 25.8634 43.0102 29.0818C39.689 32.4035 35.325 34.0644 30.9624 34.0651C26.5997 34.0644 22.2371 32.4035 18.9152 29.0811C15.6974 25.8628 13.9248 21.5837 13.9248 17.0327C13.9248 12.4803 15.6974 8.20112 18.9152 4.98287C25.5583 -1.66129 36.3671 -1.66063 43.0095 4.98287Z" fill="#55696E"/>
<path d="M43.0094 4.98242C46.2278 8.20142 47.9998 12.4799 47.9998 17.0322C47.9998 21.5832 46.2278 25.863 43.01 29.0813C39.6888 32.4031 35.3249 34.064 30.9622 34.0646C26.5995 34.064 22.237 32.4031 18.915 29.0807L43.0094 4.98242Z" fill="#323C3C"/>
<path d="M38.6379 24.7103C36.522 26.8272 33.7423 27.8847 30.9626 27.8847C28.182 27.8847 25.4023 26.8272 23.2863 24.7103L23.2854 24.7094C19.0545 20.4775 19.0545 13.5916 23.2863 9.35875C25.3366 7.30844 28.0629 6.17969 30.9626 6.17969C33.8604 6.17969 36.5857 7.3075 38.636 9.35688C38.637 9.35781 38.637 9.35781 38.6379 9.35875C42.8707 13.5916 42.8707 20.4784 38.6379 24.7103Z" fill="white"/>
<path d="M38.6377 24.7109C36.5217 26.8277 33.742 27.8852 30.9623 27.8852C28.1817 27.8852 25.402 26.8277 23.2861 24.7109L23.2852 24.7099L38.6358 9.35742C38.6367 9.35836 38.6367 9.35836 38.6377 9.3593C42.8705 13.5921 42.8705 20.479 38.6377 24.7109Z" fill="#EEE9E8"/>
<path d="M30.9619 9.08984C30.1853 9.08984 29.5557 9.71947 29.5557 10.4961V12.0649C29.5557 12.8415 30.1853 13.4712 30.9619 13.4712C31.7385 13.4712 32.3682 12.8415 32.3682 12.0649V10.4961C32.3682 9.71947 31.7385 9.08984 30.9619 9.08984Z" fill="#55696E"/>
<path d="M30.9619 20.6113C30.1853 20.6113 29.5557 21.241 29.5557 22.0176V23.5864C29.5557 24.363 30.1853 24.9926 30.9619 24.9926C31.7385 24.9926 32.3682 24.363 32.3682 23.5864V22.0176C32.3682 21.241 31.7385 20.6113 30.9619 20.6113Z" fill="#323C3C"/>
<path d="M37.5073 15.6289H35.9385C35.1619 15.6289 34.5322 16.2585 34.5322 17.0352C34.5322 17.8118 35.1619 18.4414 35.9385 18.4414H37.5073C38.2839 18.4414 38.9135 17.8118 38.9135 17.0352C38.9135 16.2585 38.2839 15.6289 37.5073 15.6289Z" fill="#323C3C"/>
<path d="M27.3921 17.0352C27.3921 16.2585 26.7624 15.6289 25.9858 15.6289H24.417C23.6404 15.6289 23.0107 16.2585 23.0107 17.0352C23.0107 17.8118 23.6404 18.4414 24.417 18.4414H25.9858C26.7624 18.4414 27.3921 17.8119 27.3921 17.0352Z" fill="#55696E"/>
<path d="M27.3303 11.4207C26.7812 10.8715 25.8908 10.8715 25.3416 11.4207C24.7924 11.9699 24.7924 12.8602 25.3416 13.4094L26.4509 14.5187C26.7255 14.7933 27.0854 14.9307 27.4452 14.9307C27.805 14.9307 28.165 14.7934 28.4395 14.5187C28.9887 13.9696 28.9887 13.0792 28.4395 12.53L27.3303 11.4207Z" fill="#55696E"/>
<path d="M35.4778 19.5681C34.9287 19.019 34.0382 19.019 33.489 19.5681C32.9399 20.1173 32.9399 21.0077 33.489 21.5569L34.5984 22.6662C34.873 22.9408 35.2329 23.0781 35.5927 23.0781C35.9525 23.0781 36.3125 22.9409 36.587 22.6662C37.1362 22.117 37.1362 21.2267 36.587 20.6775L35.4778 19.5681Z" fill="#323C3C"/>
<path d="M36.5829 13.4051L35.4729 14.5142C35.1991 14.7889 34.8391 14.9267 34.4791 14.9267C34.1191 14.9267 33.7591 14.7889 33.4844 14.5142L33.4835 14.5132C32.935 13.9639 32.935 13.0751 33.4844 12.5257L34.5935 11.4167C35.1419 10.8682 36.0316 10.8673 36.581 11.4157C36.5819 11.4157 36.5819 11.4157 36.5829 11.4167C37.1322 11.9651 37.1322 12.8557 36.5829 13.4051Z" fill="#55696E"/>
<path d="M28.4351 21.552L27.326 22.662C27.0513 22.9366 26.6913 23.0735 26.3313 23.0735C25.9713 23.0735 25.6123 22.9366 25.3376 22.662C25.3366 22.661 25.3366 22.661 25.3366 22.6601C24.7882 22.1107 24.7891 21.221 25.3376 20.6726L26.4466 19.5635C26.996 19.0141 27.8857 19.0141 28.4341 19.5626L28.4351 19.5635C28.9845 20.1129 28.9845 21.0035 28.4351 21.552Z" fill="#55696E"/>
<path d="M28.4354 19.5634C28.9847 20.1128 28.9847 21.0034 28.4354 21.5519L27.3263 22.6619C27.0516 22.9366 26.6916 23.0734 26.3316 23.0734C25.9716 23.0734 25.6125 22.9366 25.3378 22.6619C25.3369 22.6609 25.3369 22.6609 25.3369 22.66L28.4344 19.5625L28.4354 19.5634Z" fill="#323C3C"/>
<path d="M36.5828 13.4054L35.4728 14.5145C35.199 14.7891 34.839 14.927 34.479 14.927C34.119 14.927 33.759 14.7891 33.4843 14.5145L33.4834 14.5135L36.5809 11.416C36.5818 11.416 36.5818 11.416 36.5828 11.417C37.1321 11.9654 37.1321 12.856 36.5828 13.4054Z" fill="#323C3C"/>
</g>
<defs>
<clipPath id="clip0_2024_3559">
<rect width="48" height="48" fill="white"/>
</clipPath>
</defs>
</svg>
