<svg width="26" height="26" viewBox="0 0 26 26" fill="none" xmlns="http://www.w3.org/2000/svg">
<path d="M21.1463 13.3623L15.6422 18.8664C15.4421 19.0665 15.1176 19.0665 14.9175 18.8664C14.7174 18.6662 14.7174 18.3418 14.9175 18.1416L19.5467 13.5124L5.21605 13.5124C5.07453 13.5124 4.94643 13.455 4.85368 13.3623C4.76093 13.2695 4.7036 13.1415 4.70357 12.9999C4.70357 12.7169 4.93302 12.4874 5.21606 12.4874L19.5468 12.4874L14.9175 7.85818C14.7174 7.65806 14.7174 7.33357 14.9175 7.13344C15.1176 6.93332 15.4421 6.93332 15.6422 7.13345L21.1463 12.6375C21.3465 12.8376 21.3465 13.1622 21.1463 13.3623Z" fill="#247DC0"/>
</svg>
